<svg xmlns="http://www.w3.org/2000/svg" xmlns:xlink="http://www.w3.org/1999/xlink" width="990.7997" height="714.8438" viewBox="0 0 990.7997 514.8438"><defs><style>.a,.ab,.af,.ag,.ai,.aq,.at,.ax,.ay,.az,.bb,.bc,.be,.bh,.br,.bu,.i,.k,.w,.y,.z{fill:none;}.b{isolation:isolate;}.c{fill:#001a36;}.ak,.bd,.bt,.d{fill:#fff;}.aj,.e,.g{fill:#4e77f7;}.f{fill:url(#a);}.af,.ai,.aq,.bg,.bs,.g{mix-blend-mode:multiply;}.h{fill:#f5aa9b;}.ag,.i{stroke:#e58a6f;}.af,.ag,.ai,.aj,.ak,.aq,.at,.ax,.bc,.bd,.be,.br,.bu,.i,.k{stroke-linecap:round;stroke-linejoin:round;}.i{stroke-width:2.0193px;}.j{fill:#ebefff;}.k{stroke:#c6cee6;stroke-width:2.635px;}.l{fill:#a5c5ff;}.m,.s{fill:#001352;}.n{fill:#c6d5ff;}.o{fill:#030406;}.p{fill:#e58a6f;}.q{fill:#97a4b7;}.r{fill:#adc1d4;}.s{opacity:0.1;}.t{fill:#2a63ed;}.u{fill:#2347ae;}.v{fill:#3163d5;}.w,.y,.z{stroke:#000;}.ab,.ay,.az,.bb,.bh,.w,.y,.z{stroke-miterlimit:10;}.w{stroke-width:0.2789px;}.bt,.x{opacity:0.5;}.y{stroke-width:0.5578px;}.z{stroke-width:0.2789px;}.aa{opacity:0.3;}.ab,.aj,.be{stroke:#fff;stroke-width:1.087px;}.ac{fill:#f3a99a;}.ad{fill:#001333;}.ae{fill:#0c1f72;}.af{stroke:#0c1f72;}.af,.ag,.ai{stroke-width:1.6304px;}.ah{fill:#ef6c90;}.ai,.aq{stroke:#ef6c90;}.ak,.ax,.br{stroke:#4e77f7;}.ak,.az{stroke-width:0.5877px;}.al{clip-path:url(#b);}.am{fill:#1b319f;}.an{fill:#6c80ff;}.ao{fill:#808291;}.ap{fill:#f9b28d;}.aq,.at,.ax{stroke-width:0.1813px;}.aq{opacity:0.7;}.ar{fill:#f6976f;}.as{fill:#f9b391;}.at{stroke:#ed8f6d;}.au{fill:#282f6b;}.av{fill:#808283;}.aw{fill:#f6996f;}.ay{stroke:#e4e4e5;stroke-width:0.6111px;}.az{stroke:#909294;}.ba{fill:#84a7ff;}.bb{stroke:#84a7ff;stroke-width:0.3345px;}.bc,.bd{stroke:#001a36;stroke-width:2.1739px;}.bf{fill:#d5e5ff;}.bh{stroke:#d5e5ff;stroke-width:0.3888px;}.bi{fill:#00cba5;}.bj{fill:#ffc645;}.bk{fill:#bfdafc;}.bl,.bs{fill:#c2d3ff;}.bm{clip-path:url(#c);}.bn{fill:#7086f3;}.bo{fill:#5c65e7;}.bp{fill:#4844da;}.bq{fill:#3423ce;}.br{stroke-width:0.5416px;}.bu{stroke:#84adff;stroke-width:3.2609px;}</style><linearGradient id="a" x1="461.3475" y1="317.2815" x2="461.3475" y2="128.3951" gradientTransform="translate(922.6949 510.2617) rotate(-180)" gradientUnits="userSpaceOnUse"><stop offset="0" stop-color="#a5c5ff"/><stop offset="1" stop-color="#84a7ff"/></linearGradient><clipPath id="b"><rect class="a" x="264.3053" y="21.0291" width="14.8909" height="13.2959"/></clipPath><clipPath id="c"><circle class="a" cx="277.2968" cy="344.8553" r="15.0503"/></clipPath></defs><g class="b"><rect class="c" x="198.371" y="98.374" width="525.9529" height="354.4452" rx="15.4707" transform="translate(922.6949 551.1932) rotate(180)"/><rect class="d" x="215.1836" y="114.532" width="492.3278" height="281.1977" transform="translate(922.6949 510.2617) rotate(180)"/><path class="e" d="M198.371,411.8877v25.4608a15.4707,15.4707,0,0,0,15.4707,15.4707H708.8532a15.4706,15.4706,0,0,0,15.4707-15.4707V411.8877"/><rect class="f" x="215.1836" y="114.532" width="492.3278" height="281.1977" transform="translate(922.6949 510.2617) rotate(180)"/><path class="d" d="M456.382,429.1273l4.3267-6.5161a.7707.7707,0,0,1,1.2775,0l4.3267,6.5161a10.9829,10.9829,0,0,1,1.8215,5.406,7.4305,7.4305,0,0,1-5.1268,7.448h0a5.1762,5.1762,0,0,1-3.32,0h0a7.4307,7.4307,0,0,1-5.1268-7.448A10.9839,10.9839,0,0,1,456.382,429.1273Z"/><path class="e" d="M540.7139,508.7247c-3.9081,0-6.83-1.6126-9.7793-3.7236-4.4009-3.15-7.9724-7.15-8.4161-11.9369l-6.8243-40.245H407.0011l-6.8247,40.245c-.4437,4.7865-4.0148,8.7867-8.4161,11.9369-2.949,2.111-5.8708,3.7236-9.7793,3.7236h-5.6139c-3.41,0-6.1743,2.01-6.1743,4.4887H552.5021c0-2.479-2.7643-4.4887-6.1743-4.4887Z"/><polygon class="g" points="515.694 452.819 461.369 452.819 417.79 452.819 518.079 466.728 515.694 452.819"/><path class="h" d="M302.9457,178.2808c-.8576-1.9566-1.6375-3.8805-2.3622-5.9631-.8963-2.5735-4.3471-10.1812.2563-11.6208,1.7709-.5537,2.9956,1.92,3.8574,3.1041q3.327,4.567,6.6553,9.1338"/><path class="h" d="M311.3525,172.9348q4.6287,6.3539,9.26,12.7087a23.3825,23.3825,0,0,1,4.1789,17.54L338.0994,226.98l-14.8,41.3474-21.7392-61.6512L279.539,192.81q-2.7435-6.8232-5.4857-13.6469-2.8006-6.9642-5.6-13.9278c-1.5672-3.9008-3.5495-7.9057-4.6334-11.9505-.0726-.2759-.0941-.6416.1586-.7729a.6266.6266,0,0,1,.3041-.0472,8.1219,8.1219,0,0,1,4.53,1.9059c.6655.5,5.3053,3.3582,5.0569,4.2918.6249-2.353,1.27-4.7017,2.0084-7.022.3189-1.004,1.2059-5.44,2.2751-5.6241a1.273,1.273,0,0,1,1.1951.5864,3.5516,3.5516,0,0,1,.4826,1.3089c.8847,3.9971,1.4973,8.0248.6818,12.039l-1.5592,7.6782q1.4973-2.5292,2.9957-5.0581c1.6257-2.7442,3.0043-5.6757,4.68-8.3678a1.7834,1.7834,0,0,1,.5212-.6011,1.2812,1.2812,0,0,1,1.6485.5094,3.4515,3.4515,0,0,1,.41,1.8423,54.462,54.462,0,0,1-1.057,9.5341,22.0945,22.0945,0,0,1-1.8444,6.3971c.8358-1.5119,1.6416-3.0448,2.5079-4.5393.4809-.8316,1.1274-1.4914,1.6059-2.3145.5161-.8865,1.6853-3.7729,3.0053-2.9382,1.2315.7791.853,3.66.7412,4.8182a46.6132,46.6132,0,0,1-1.2147,7.4926c-.57,2.1866-.5383,4.8856.8023,6.7884a6.631,6.631,0,0,0,5.8726,2.7326,4.5151,4.5151,0,0,0,1.7622-.4866c2.1863-1.1809,2.4782-3.05,1.5556-5.1571"/><line class="i" x1="273.8697" y1="158.6627" x2="270.4851" y2="170.2884"/><line class="i" x1="273.2721" y1="177.2208" x2="278.9536" y2="167.6286"/><line class="i" x1="280.3699" y1="182.6362" x2="286.3079" y2="171.885"/><path class="i" d="M297.4155,188.5972c5.1244,2.67,11.387,2.7,16.2831,5.7686a28.1449,28.1449,0,0,1,6.575,6.402"/><path class="j" d="M414.1708,395.73c5.3651-21.073,13.7425-57.2018,12.7482-73.8092-1.45-24.2214-6.2138-53.5934-6.2138-53.5934s1.991-.3711-20.2275,39.6421c-17.3692,31.28-38.816,43.9152-54.9929,12.6818-18.4477-35.6176-41.6782-90.6292-41.6782-90.6292-3.3929-26.8788,26.2787-22.6086,26.2787-22.6086l33.38,35.5375s.1971-1.8678,17.219-41.336c21.7663-50.4694,38.8024-44.8254,85.8277-54.7773l47.369,3.957s33.6827,2.454,49.6178,14.1259,39.5287,90.2106,39.5287,90.2106l15.8643,20.4657,9.18,26.3778c6.8875,19.62,8.4056,24.5094,6.8861,43.9169l-10.0324-2.3059L563.499,300.8918c-11.3706,23.5529-2.594,70.1817,3.33,94.838"/><path class="k" d="M568.2712,204.3722a170.1983,170.1983,0,0,1-6.185,80.6526"/><path class="l" d="M525.4065,299.2708c21.2766-99.4362-11.57-148.5915-11.57-148.5915l-47.3248-3.8083s8.4615,87.0461,58.8944,152.4"/><path class="m" d="M531.6246,257.872a346.543,346.543,0,0,0-21.4584-67.1492l9.869-13.1919-15.442-7.1694-13.3117,5.3152,11.4323,15.91c-3.165,29.8615-.71,58.6265,1.2981,74.5906a193.0883,193.0883,0,0,0,21.3946,33.0936s3.0439-14.2419,4.3569-25.4019S531.6246,257.872,531.6246,257.872Z"/><path class="n" d="M504.5932,170.3615l-38.0811-23.49a301.3539,301.3539,0,0,0,6.5048,36.0986Z"/><path class="n" d="M504.5932,170.3615l9.2437-19.6822s6.5486,9.8,11.9036,29.5Z"/><path class="o" d="M546.1383,59.2583a23.5449,23.5449,0,0,0,.4814-3.4921,22.863,22.863,0,0,0-4.6848-15.5673q-.5707-.7169-1.2059-1.379l-3.1771,4.2556c-.33-6.7374-6.9347-11.8035-13.6112-12.7652s-13.3689,1.1661-19.7792,3.2661l-19.11,6.26c-3.4268,1.1226-6.94,2.2917-9.73,4.5766s-4.735,5.97-3.9328,9.4856a15.0815,15.0815,0,0,0-11.8728,7.3688c-2.1236,3.6738-2.9662,9.4222-.68,13.2361,1.8291,3.0519,2.9544,6.4561,4.69,9.57,3.1818,5.7066,7.3465,12.4573,14.5665,12.9026,3.4847.2172,6.8179-1.2936,9.9817-2.77l15.2867-7.1344,7.6433-3.5672a80.5047,80.5047,0,0,1,7.4187-3.355c3.1859-1.1081,6.4414-.38,9.64-1.1887,4.0557-1.0258,7.7477-4.0013,10.424-7.1245A36.9787,36.9787,0,0,1,541.2,68.44c.3974-.366.8612-.6467,1.24-1.0361a12.8076,12.8076,0,0,0,2.2046-3.6183A22.1394,22.1394,0,0,0,546.1383,59.2583Z"/><path class="h" d="M510.6061,130.6127c13.7043,3.2982,14.0209-2.4042,17.72-14.899,3.1727-10.7169,3.6078-22.0893,3.4943-33.1965-.0164-1.6076-.0577-3.2149-.0752-4.8225a12.7436,12.7436,0,0,0-.0622-2.3766,6.7119,6.7119,0,0,0-.4564-1.5043,4.7268,4.7268,0,0,0-1.3273-1.6412,5.6752,5.6752,0,0,0-1.0968-.6884,13.4268,13.4268,0,0,0-4.82-.9759l-12.7092-.9755c-5.06-.3884-10.67-.616-14.6138,2.5779a14.88,14.88,0,0,0-4.5288,7.5843c-.8327,2.8727-1.1964,5.86-1.9192,8.7627a6.2473,6.2473,0,0,1-1.446,3.0468c-2.7122,2.6585-4.0422-1.6118-5.09-3.3323-2.0421-3.3537-6.05-4.4808-9.7569-3.8409-4.06.7008-7.7263,3.68-7.3848,8.1152.7485,9.7207,8.8577,14.4112,8.8577,14.4112s-.6232,3.6648-2.82,17.3924c-.8556,5.3483-4.536,16.9143-6.06,22.5873l38.081,23.5241,9.288-19.5671Z"/><path class="p" d="M510.6061,130.6127a106.7981,106.7981,0,0,1-20.062-9.8429s4.6274,12.05,22.267,23.43Z"/><path d="M527.9494,92.0069a2.5437,2.5437,0,0,1-.0178.4942l.0471-.35a2.5207,2.5207,0,0,1-.1577.579l2.2021-.5814a1.2855,1.2855,0,0,1-.1166-.128l.2061.2666a1.279,1.279,0,0,1-.1591-.2755l.1329.3147a1.43,1.43,0,0,1-.0886-.3328l.0471.35a1.5282,1.5282,0,0,1-.0011-.3714l-.047.35a1.4775,1.4775,0,0,1,.0946-.3578l-.1328.3148a1.3375,1.3375,0,0,1,.1582-.2763l-.206.2667a1.2135,1.2135,0,0,1,.2081-.2095l-2.0693-.2667a3.7725,3.7725,0,0,1,.3771.65l-.1328-.3147a1.5545,1.5545,0,0,1,.105.38l-.047-.35a1.12,1.12,0,0,1-.0015.2569l.0471-.35a.8373.8373,0,0,1-.0475.1839l.1329-.3148a.6152.6152,0,0,1-.0683.1165l.206-.2666a.7176.7176,0,0,1-.1093.11l.2667-.206a.8438.8438,0,0,1-.1692.1009l.3147-.1329a.8762.8762,0,0,1-.2068.0591l.35-.047a.7542.7542,0,0,1-.1863.0023l.35.047a.5755.5755,0,0,1-.1347-.0361l.3147.1328a.4659.4659,0,0,1-.0862-.0506l.2666.206a.4319.4319,0,0,1-.0589-.0582l.206.2667a.4194.4194,0,0,1-.0516-.09l.1328.3147a.55.55,0,0,1-.0209-.0724,1.339,1.339,0,0,0-.6055-.7874.9806.9806,0,0,0-.49-.1563.9983.9983,0,0,0-.5254.0235,1.3326,1.3326,0,0,0-.7874.6055l-.1328.3147a1.3258,1.3258,0,0,0,0,.7005c.004.0188.009.0369.0146.0553a2.2392,2.2392,0,0,0,.15.3563,1.5159,1.5159,0,0,0,.2631.3509c.0117.0119.0237.023.0362.0341a2.273,2.273,0,0,0,.3.23,1.9971,1.9971,0,0,0,.3977.1736.6916.6916,0,0,0,.1109.0267,2.2663,2.2663,0,0,0,.4607.0518,3.0058,3.0058,0,0,0,.4547-.0588.8641.8641,0,0,0,.1322-.036A2.0831,2.0831,0,0,0,530.1,93.97a2.0273,2.0273,0,0,0,.6225-.6367,2.2239,2.2239,0,0,0,.1907-1.6682,1.7186,1.7186,0,0,0-.0786-.236,5.3177,5.3177,0,0,0-.2283-.5146,4.7064,4.7064,0,0,0-.2816-.45,1.324,1.324,0,0,0-.4726-.4727.98.98,0,0,0-.49-.1563.9974.9974,0,0,0-.5254.0235,1.3154,1.3154,0,0,0-.5813.3388,1.2613,1.2613,0,0,0-.2081.21,2.529,2.529,0,0,0-.3445.4978,2.9533,2.9533,0,0,0-.3041,1.1792,3.1338,3.1338,0,0,0,.0579.61,1.4325,1.4325,0,0,0,.0707.2871,2.6147,2.6147,0,0,0,.6323,1.0307,1.3361,1.3361,0,0,0,1.2819.3388,1.32,1.32,0,0,0,.92-.92,2.5307,2.5307,0,0,0,.1524-.544,3.9611,3.9611,0,0,0,.07-.8795,1.3945,1.3945,0,0,0-.3859-.9316,1.3176,1.3176,0,0,0-1.8633,0,1.3122,1.3122,0,0,0-.3859.9316Z"/><path d="M512.3655,90.8387l-.2364,1.0658,2.2021-.5814c-.0573-.0687-.114-.1379-.1688-.2086l.206.2666a2.1538,2.1538,0,0,1-.2639-.4273l.1328.3148a1.2076,1.2076,0,0,1-.0808-.2777l.0471.35a.8054.8054,0,0,1-.0018-.2052l-.0471.35a.8608.8608,0,0,1,.0539-.1909l-.1328.3147a.8673.8673,0,0,1,.1-.17l-.206.2666a.7587.7587,0,0,1,.1183-.118l-.2667.206a.6281.6281,0,0,1,.12-.0693l-.3148.1328a.5566.5566,0,0,1,.1095-.03l-.35.047a.525.525,0,0,1,.1162,0l-.35-.047a.5731.5731,0,0,1,.1275.0364l-.3148-.1328a.7108.7108,0,0,1,.1166.0695l-.2666-.206a.9432.9432,0,0,1,.1553.1579l-.2061-.2667a1.18,1.18,0,0,1,.1344.23l-.1328-.3147a1.2736,1.2736,0,0,1,.0851.3126l-.047-.35a1.3067,1.3067,0,0,1,0,.3229l.047-.35a1.1573,1.1573,0,0,1-.0775.2828l.1329-.3147a1.0072,1.0072,0,0,1-.111.1908L513,91.23a.88.88,0,0,1-.156.1556l.2666-.206a.7871.7871,0,0,1-.155.09l.3147-.1329a.69.69,0,0,1-.1467.0387l.35-.047a.78.78,0,0,1-.1949-.0019l.35.0471a.9133.9133,0,0,1-.2111-.0611l.3148.1328a.9793.9793,0,0,1-.1895-.1125l.2667.206a.9081.9081,0,0,1-.1383-.1361l.206.2667a.7428.7428,0,0,1-.0953-.1607l.1329.3147a.6237.6237,0,0,1-.0367-.1369l.0471.35a.5891.5891,0,0,1-.0007-.1224l-.047.35a.5962.5962,0,0,1,.0316-.1246.9983.9983,0,0,0,.0235-.5254.9808.9808,0,0,0-.1564-.49,1.4735,1.4735,0,0,0-.7873-.6055,1.3339,1.3339,0,0,0-1.0153.1328l-.2666.206a1.3164,1.3164,0,0,0-.3389.5814,1.38,1.38,0,0,0-.0551.3,1.64,1.64,0,0,0,.0242.6478.7382.7382,0,0,0,.0329.1274,2.14,2.14,0,0,0,.1891.4249,2.0874,2.0874,0,0,0,.52.5658,2.281,2.281,0,0,0,.6784.365,1.79,1.79,0,0,0,.6288.0993,2.4437,2.4437,0,0,0,.4686-.0583,2.0582,2.0582,0,0,0,.44-.1706,1.79,1.79,0,0,0,.4953-.3639,1.9191,1.9191,0,0,0,.3707-.5,2.3461,2.3461,0,0,0,.2219-.5928,2.7194,2.7194,0,0,0,.0622-.6375,2.75,2.75,0,0,0-.1-.6352,3.6851,3.6851,0,0,0-.1822-.4445,1.1449,1.1449,0,0,0-.0772-.1413,2.3786,2.3786,0,0,0-.6869-.7065,1.8572,1.8572,0,0,0-.4581-.209.5363.5363,0,0,0-.0777-.02,2.2572,2.2572,0,0,0-.421-.0527,1.9027,1.9027,0,0,0-1.5847.9338,2.4571,2.4571,0,0,0-.2043.4592,2.197,2.197,0,0,0-.0887.5187.8533.8533,0,0,0,.0033.193,2.6465,2.6465,0,0,0,.0914.5332,2.8709,2.8709,0,0,0,.3277.6916c.1464.2163.3132.42.48.6205a1.3175,1.3175,0,0,0,2.202-.5814l.2364-1.0658a1.3933,1.3933,0,0,0-.1328-1.0152,1.4755,1.4755,0,0,0-.7874-.6055,1.318,1.318,0,0,0-1.6207.92Z"/><path class="p" d="M523.3326,92.1718a46.7424,46.7424,0,0,0,1.4343,10.9847c.2066.8646.4307,1.7248.6618,2.5832.2226.8267.4113,1.0539-.4724,1.3175a12.6718,12.6718,0,0,1-5.1735.3013,1.3636,1.3636,0,0,0-1.6207.92,1.3265,1.3265,0,0,0,.92,1.6207,16.6245,16.6245,0,0,0,6.331-.236,3.9936,3.9936,0,0,0,2.4358-1.4961,3.55,3.55,0,0,0,.1619-2.9768,49.4594,49.4594,0,0,1-2.0434-13.0187,1.3183,1.3183,0,0,0-2.635,0Z"/><path d="M521.62,114.53a9.0867,9.0867,0,0,1-9.1552-1.9205c-1.2315-1.1651-3.0982.6949-1.8633,1.8633a11.7646,11.7646,0,0,0,11.719,2.5982,1.3492,1.3492,0,0,0,.92-1.6207,1.33,1.33,0,0,0-1.6207-.92Z"/><path d="M533.4691,84.2712a4.696,4.696,0,0,0-.8836-.5074,6.5318,6.5318,0,0,0-4.3468-.4763,1.9766,1.9766,0,0,0-.4721,3.6122,2.1556,2.1556,0,0,0,1.5228.1992c.1177-.0254.2356-.0467.3547-.064l-.5253.0706a4.7909,4.7909,0,0,1,1.2575.0022l-.5254-.0706a4.9071,4.9071,0,0,1,1.1564.3153l-.4721-.1992a4.72,4.72,0,0,1,.939.5309,1.99,1.99,0,0,0,1.5228.1993,2.0158,2.0158,0,0,0,1.1811-.9083,1.9947,1.9947,0,0,0,.1992-1.5228l-.1992-.4721a1.9857,1.9857,0,0,0-.709-.709Z"/><path d="M518.0659,82.2431a12.8864,12.8864,0,0,0-10.884,1.49,1.9767,1.9767,0,1,0,1.995,3.413,10.946,10.946,0,0,1,1.035-.6124,2.7123,2.7123,0,0,1,.542-.26c-.498.1192.1159-.0426.2248-.0822a7.8329,7.8329,0,0,1,2.1849-.5486c-.5629.0268.1133-.0036.2224-.0119q.3-.0228.6011-.0293.5263-.011,1.0521.0279c.1109.0083.7833.0308.2216.0118a3.71,3.71,0,0,1,.5923.1037,10.9766,10.9766,0,0,1,1.1621.3094,1.9928,1.9928,0,0,0,2.431-1.38,2.02,2.02,0,0,0-1.38-2.4311Z"/><path class="k" d="M452,150.2528c-1.5056,4.6632-3.7414,12.8029-5.0786,16.9609-.71,2.2085-1.4088,4.61-.3608,6.644,2.6175,5.0812,13.8916,4.3138,15.0736,9.8067.7832,3.6395-3.751,6.6468-5.6611,10.1121-3.4756,6.305,4.05,11.8165,7.5361,17.8064,21.2985,36.5932,35.5972,54.9885,60.0042,87.514l2.2268.2678c7.9667-34.031,12.8139-53.4082,17.5267-90.0714.7714-6.0013,4.46-12.6614.3424-17.0951-2.2629-2.4369-6.2111-3.7935-6.6635-7.088-.6827-4.9723,7.3043-7.2927,7.7242-12.2941.1681-2.0024-.9687-3.8556-2.061-5.5423-2.0566-3.1756-5.8191-9.4929-8.13-13.0528"/><path class="q" d="M602.3358,352.11l34.2-112.9753a3.4046,3.4046,0,0,0-3.2585-4.3909H559.7205a3.4045,3.4045,0,0,0-3.2585,2.4181l-34.2,112.9753a3.4045,3.4045,0,0,0,3.2585,4.3909h73.5569A3.4044,3.4044,0,0,0,602.3358,352.11Z"/><path class="r" d="M606.7378,352.11l34.2-112.9753a3.4045,3.4045,0,0,0-3.2584-4.3909h-73.557a3.4044,3.4044,0,0,0-3.2584,2.4181l-34.2,112.9753a3.4045,3.4045,0,0,0,3.2584,4.3909h73.5569A3.4044,3.4044,0,0,0,606.7378,352.11Z"/><ellipse class="d" cx="588.8612" cy="289.7782" rx="10.4738" ry="8.5472" transform="translate(-42.3556 469.4842) rotate(-42.0933)"/><path class="h" d="M613.8152,328.7449c-1.801.618-4.464.0361-7.2439-2.31-4.695-3.9627-16.4324-14.585-20.6885-17.0547s.3318,6.2567.3318,6.2567-4.0639-2.8972-8.0546-5.5458-4.3208,2.2,2.7838,11.5031c0,0-5.3809-3.1607-8.6321-4.6232s.49,5.0323,5.6238,10.4879,6.72,7.2793,6.72,7.2793-6.9422-3.4929-9.9669-5.4088-3.71.94,2.2173,6.1795c7.2759,6.4315,9.4284,9.5837,18.1873,16.855a72.8367,72.8367,0,0,0,19.5844,11.0949c5.5464.8423,20.45,1.63,20.2814-17.5673,0,0-2.2432-10.1022-8.5856-17.3969s-9.1962-11.1282-9.1962-11.1282"/><path class="i" d="M586.2146,315.6367c5.8956,6.3288,12.1842,14.1546,12.1842,14.1546"/><path class="i" d="M580.9438,321.594c7.6166,7.7419,13.4026,13.8954,13.4026,13.8954"/><path class="i" d="M584.6551,334.738c4.014,3.6851,5.8547,5.32,5.8547,5.32"/><line class="k" x1="363.4655" y1="242.9507" x2="391.6121" y2="279.3626"/><path class="k" d="M420.7052,268.3271c6.7362-14.3462,11.8621-25.7428,15.2866-33.5109"/><circle class="s" cx="456.3815" cy="254.2863" r="18.8002"/><circle class="t" cx="458.5663" cy="254.2863" r="18.8002"/><path class="d" d="M463.13,246.3091a4.2066,4.2066,0,0,0-2.8539,1.1458,2.5678,2.5678,0,0,1-3.4185,0,4.21,4.21,0,0,0-2.8547-1.1458c-2.52,0-4.5634,2.3355-4.5634,5.2154a5.6153,5.6153,0,0,0,1.2239,3.5512,4.0476,4.0476,0,0,1,.9478,1.9126,12.3959,12.3959,0,0,0,3.68,7.5746h.6674v-3.9115a2.6077,2.6077,0,1,1,5.2154,0v3.9115h.6674a12.3908,12.3908,0,0,0,3.6785-7.5738,4.0577,4.0577,0,0,1,.9477-1.9125,5.6111,5.6111,0,0,0,1.2256-3.5521c0-2.88-2.043-5.2154-4.5634-5.2154Z"/><rect class="c" x="88.2106" y="306.0539" width="119.2719" height="207.1594" rx="16.015"/><rect class="u" x="99.065" y="306.0539" width="119.2719" height="207.1594" rx="16.015"/><path class="d" d="M198.8918,314.4226H188.8a3.89,3.89,0,0,0-3.7733,2.945l-.2747,1.0975a3.89,3.89,0,0,1-3.7733,2.945H136.4235a3.89,3.89,0,0,1-3.7733-2.945l-.2747-1.0975a3.89,3.89,0,0,0-3.7733-2.945H118.51A10.1673,10.1673,0,0,0,108.3428,324.59V494.6773A10.1674,10.1674,0,0,0,118.51,504.8447h80.3815a10.1674,10.1674,0,0,0,10.1674-10.1674V324.59A10.1673,10.1673,0,0,0,198.8918,314.4226Z"/><path class="v" d="M202.3219,306.0539H115.08a16.0149,16.0149,0,0,0-16.015,16.015V497.1982a16.015,16.015,0,0,0,16.015,16.0152h87.2419a16.015,16.015,0,0,0,16.015-16.0152V322.0689A16.0149,16.0149,0,0,0,202.3219,306.0539Zm6.7372,188.6233a10.1673,10.1673,0,0,1-10.1674,10.1674H118.51a10.1673,10.1673,0,0,1-10.1674-10.1674V324.59A10.1673,10.1673,0,0,1,118.51,314.4225h10.0921a3.89,3.89,0,0,1,3.7733,2.945l.2747,1.0976a3.89,3.89,0,0,0,3.7733,2.9451h44.5549a3.89,3.89,0,0,0,3.7733-2.9451l.2747-1.0976a3.89,3.89,0,0,1,3.7733-2.945h10.0921A10.1673,10.1673,0,0,1,209.0591,324.59Z"/><path d="M124.4262,335.4338h-2.272v2.2568H121.09v-5.3039h1.0639v2.1809h2.272v-2.1809H125.49v5.3039h-1.0635Z"/><path d="M128.1884,333.4126a1.6646,1.6646,0,0,1,1.3906.6687v-.6H130.65v4.21H129.579v-.6154a1.6607,1.6607,0,0,1-1.3984.6838,1.9975,1.9975,0,0,1-1.9145-2.1885A1.9712,1.9712,0,0,1,128.1884,333.4126Zm.2735.9345a1.1228,1.1228,0,0,0-1.1094,1.2234,1.15,1.15,0,0,0,1.1094,1.2539,1.2453,1.2453,0,0,0,0-2.4773Z"/><path d="M134.1459,333.4126a1.9672,1.9672,0,0,1,1.9229,2.1579,1.9944,1.9944,0,0,1-1.9229,2.1885,1.7181,1.7181,0,0,1-1.39-.6687v2.6064h-1.064v-6.2158h1.064v.6079A1.68,1.68,0,0,1,134.1459,333.4126Zm-.2807.9345a1.2462,1.2462,0,0,0,0,2.4773,1.1515,1.1515,0,0,0,1.1167-1.2539A1.1241,1.1241,0,0,0,133.8652,334.3471Z"/><path d="M139.2993,333.4126a1.9671,1.9671,0,0,1,1.9223,2.1579,1.9943,1.9943,0,0,1-1.9223,2.1885,1.7185,1.7185,0,0,1-1.3907-.6687v2.6064h-1.0639v-6.2158h1.0639v.6079A1.6808,1.6808,0,0,1,139.2993,333.4126Zm-.2813.9345a1.2462,1.2462,0,0,0,0,2.4773,1.1515,1.1515,0,0,0,1.1167-1.2539A1.1241,1.1241,0,0,0,139.018,334.3471Z"/><path d="M144.892,333.4809h1.1324l-2.6065,6.2007h-1.1323l.9121-2.0974-1.687-4.1033h1.1929l1.0869,2.9407Z"/><path d="M153.0541,335.0461a2.5554,2.5554,0,0,1-2.7963,2.6445h-1.8541v-5.3039h1.8541A2.5628,2.5628,0,0,1,153.0541,335.0461Zm-2.8344,1.74a1.5865,1.5865,0,0,0,1.748-1.74,1.6034,1.6034,0,0,0-1.748-1.7627h-.752v3.5029Z"/><path d="M155.6913,337.759a2.1741,2.1741,0,0,1,0-4.3464,1.9764,1.9764,0,0,1,2.0748,2.082,2.4791,2.4791,0,0,1-.0308.41h-3.0776a.9851.9851,0,0,0,1.0107.9726.8675.8675,0,0,0,.8437-.5092H157.66A1.9568,1.9568,0,0,1,155.6913,337.759Zm-1.0258-2.5684h1.9985a.9354.9354,0,0,0-1.0029-.9043A.9775.9775,0,0,0,154.6655,335.1906Z"/><path d="M161.49,335.3654a.9468.9468,0,1,0-1.8843,0v2.3252h-1.064v-4.21h1.064v.5242a1.5729,1.5729,0,0,1,1.2691-.585,1.619,1.619,0,0,1,1.6791,1.8008v2.47H161.49Z"/><path d="M163.7319,334.3547H163.23v-.8738h.5015V332.44h1.0713v1.041h.9423v.8738h-.9423v2.0366c0,.281.1142.4026.4487.4026h.4936v.8967h-.6684c-.8057,0-1.3452-.342-1.3452-1.3071Z"/><path d="M168.1625,333.4126a1.6649,1.6649,0,0,1,1.3907.6687v-.6h1.0713v4.21h-1.0713v-.6154a1.6609,1.6609,0,0,1-1.3985.6838,1.9975,1.9975,0,0,1-1.9145-2.1885A1.9712,1.9712,0,0,1,168.1625,333.4126Zm.2735.9345a1.1228,1.1228,0,0,0-1.1094,1.2234,1.15,1.15,0,0,0,1.1094,1.2539,1.2453,1.2453,0,0,0,0-2.4773Z"/><path d="M171.666,332.0676H172.73v5.623H171.666Z"/><path d="M178.019,332.3183a2.499,2.499,0,0,1,2.4922,1.7173H179.288a1.3382,1.3382,0,0,0-1.2768-.76,1.7642,1.7642,0,0,0,0,3.5107,1.3322,1.3322,0,0,0,1.2768-.7675h1.2232a2.49,2.49,0,0,1-2.4922,1.7175,2.7091,2.7091,0,0,1,0-5.418Z"/><path d="M181.4243,332.0676h1.0639v5.623h-1.0639Z"/><path d="M183.4223,332.3562a.6543.6543,0,1,1,.6538.623A.624.624,0,0,1,183.4223,332.3562Zm.1143,1.1247h1.0639v4.21h-1.0639Z"/><path d="M188.5976,335.3654a.9468.9468,0,1,0-1.8843,0v2.3252h-1.0639v-4.21h1.0639v.5242a1.5727,1.5727,0,0,1,1.2686-.585,1.6192,1.6192,0,0,1,1.68,1.8008v2.47h-1.064Z"/><path d="M190.5585,332.3562a.6544.6544,0,1,1,.6538.623A.6241.6241,0,0,1,190.5585,332.3562Zm.1143,1.1247h1.064v4.21h-1.064Z"/><path d="M194.5942,333.4126a1.8786,1.8786,0,0,1,1.9834,1.4892H195.43a.8272.8272,0,0,0-.8437-.5852c-.5928,0-.9878.4485-.9878,1.2691s.395,1.2614.9878,1.2614a.8031.8031,0,0,0,.8437-.5774h1.1475a1.9207,1.9207,0,0,1-1.9834,1.4893,2.1752,2.1752,0,0,1,0-4.3464Z"/><rect class="w" x="114.4762" y="343.1644" width="88.4495" height="86.5406" rx="1.9381"/><path d="M136.2944,349.5163h-1.438l-.2378.688h-.7608l1.2984-3.6157H136l1.2983,3.6157h-.7656Zm-.7188-2.09-.5224,1.5105h1.0449Z"/><path d="M140.4838,350.2043h-.729v-.3621a1.0567,1.0567,0,0,1-.8535.3982,1.1041,1.1041,0,0,1-1.1484-1.2207v-1.6811h.7241v1.5776a.6423.6423,0,1,0,1.2778,0v-1.5776h.729Z"/><path d="M142.3154,347.292a1.1208,1.1208,0,0,1,.9463.4553v-.4087h.7294v2.8865a1.31,1.31,0,0,1-1.4174,1.3913,1.2834,1.2834,0,0,1-1.4429-1.06h.7187a.74.74,0,0,0,1.4122-.331V349.78a1.13,1.13,0,0,1-.9463.4707,1.36,1.36,0,0,1-1.3086-1.49A1.3418,1.3418,0,0,1,142.3154,347.292Zm.186.6364a.7642.7642,0,0,0-.7549.8328.7831.7831,0,0,0,.7549.8535.8477.8477,0,0,0,0-1.6863Z"/><path d="M147.4,350.2043h-.729v-.3621a1.0565,1.0565,0,0,1-.8535.3982,1.1041,1.1041,0,0,1-1.1484-1.2207v-1.6811h.7241v1.5776a.6423.6423,0,1,0,1.2778,0v-1.5776h.729Z"/><path d="M149.206,350.2509a1.1306,1.1306,0,0,1-1.252-.9519h.73a.4755.4755,0,0,0,.5171.3828c.2847,0,.44-.1294.44-.2949,0-.5119-1.6192-.186-1.6192-1.2361,0-.476.4243-.8588,1.1328-.8588a1.0266,1.0266,0,0,1,1.1534.9467h-.6929a.4273.4273,0,0,0-.481-.3725c-.269,0-.4087.1086-.4087.2741,0,.5225,1.5879.1966,1.6084,1.2466C150.3334,349.8784,149.9042,350.2509,149.206,350.2509Z"/><path d="M151.038,347.9336h-.3413v-.595h.3413V346.63h.73v.7088h.6411v.595h-.6411V349.32c0,.1914.0777.2742.3052.2742h.3359v.61h-.455c-.5484,0-.9156-.2327-.9156-.89Z"/><g class="x"><path d="M118.7958,358.18c-.5,0-.8862-.2622-.893-.7172h.5175a.33.33,0,0,0,.3653.32c.2275,0,.3623-.1206.3623-.293,0-.5207-1.2417-.207-1.2383-1.0793,0-.4346.3521-.6965.8486-.6965a.76.76,0,0,1,.8619.686h-.5308a.3183.3183,0,0,0-.3452-.2861c-.19-.0069-.3311.0862-.3311.2827,0,.4829,1.2349.2139,1.2349,1.0622A.76.76,0,0,1,118.7958,358.18Z"/><path d="M121.8657,358.1555h-.4864v-.2415a.7042.7042,0,0,1-.5688.2656.7363.7363,0,0,1-.7656-.8139v-1.1206h.4829v1.0517a.4281.4281,0,1,0,.8515,0v-1.0517h.4864Z"/><path d="M123.6762,357.1a.43.43,0,1,0-.8555,0v1.0552h-.4829v-1.91h.4829v.2378a.7142.7142,0,0,1,.5762-.2654.7344.7344,0,0,1,.7617.8171v1.1209h-.4824Z"/></g><g class="x"><path d="M129.9453,355.7485h.5483l.7656,1.79.7656-1.79h.545v2.407h-.4829V356.59l-.6451,1.5657h-.3652l-.6484-1.5657v1.5657h-.4829Z"/><path d="M133.89,358.1865a.9862.9862,0,1,1,.9966-.9863A.9551.9551,0,0,1,133.89,358.1865Zm0-.4207a.5087.5087,0,0,0,.5-.5656.4948.4948,0,1,0-.98,0C133.41,357.58,133.6308,357.7658,133.89,357.7658Z"/><path d="M136.5761,357.1a.43.43,0,1,0-.8555,0v1.0552h-.4829v-1.91h.4829v.2378a.7139.7139,0,0,1,.5757-.2654.7345.7345,0,0,1,.7622.8171v1.1209h-.4824Z"/></g><g class="x"><path d="M143.2563,355.7485h1.7656v.39H144.38v2.0174h-.4824v-2.0174h-.6416Z"/><path d="M147.1743,358.1555h-.4864v-.2415a.7042.7042,0,0,1-.5688.2656.7363.7363,0,0,1-.7656-.8139v-1.1206h.4829v1.0517a.4281.4281,0,1,0,.8515,0v-1.0517h.4864Z"/><path d="M148.4814,358.1865a.9866.9866,0,0,1,0-1.9724.8972.8972,0,0,1,.9419.9448,1.1374,1.1374,0,0,1-.0142.1863h-1.3965a.4469.4469,0,0,0,.4585.4414.3934.3934,0,0,0,.3828-.2312h.521A.8882.8882,0,0,1,148.4814,358.1865Zm-.4653-1.1655h.9067a.4242.4242,0,0,0-.4551-.41A.4435.4435,0,0,0,148.0161,357.021Z"/></g><g class="x"><path d="M154.9677,355.7485h.5176l.4238,1.8689.49-1.8689h.5381l.4619,1.8586.4277-1.8586h.521l-.6729,2.407h-.5688l-.4517-1.7139-.4726,1.7139-.5655.0034Z"/><path d="M159.49,358.1865a.9866.9866,0,0,1,0-1.9724.8972.8972,0,0,1,.9419.9448,1.1374,1.1374,0,0,1-.0142.1863h-1.3965a.4469.4469,0,0,0,.4585.4414.3934.3934,0,0,0,.3828-.2312h.521A.8882.8882,0,0,1,159.49,358.1865Zm-.4654-1.1655h.9068a.4243.4243,0,0,0-.4551-.41A.4436.4436,0,0,0,159.0248,357.021Z"/><path d="M161.5327,356.2141a.7834.7834,0,0,1,.624.2964v-.9068h.49v2.5518h-.49v-.2827a.7224.7224,0,0,1-.6275.3137.907.907,0,0,1-.8725-.9932A.8951.8951,0,0,1,161.5327,356.2141Zm.1206.424a.51.51,0,0,0-.5035.5552.5221.5221,0,0,0,.5035.5691.5652.5652,0,0,0,0-1.1243Z"/></g><g class="x"><path d="M168.3027,355.7485h1.7656v.39h-.6416v2.0174h-.4824v-2.0174h-.6416Z"/><path d="M170.4169,355.6037H170.9v.8792a.7619.7619,0,0,1,1.3379.5517v1.1209h-.4824V357.1a.43.43,0,1,0-.8555,0v1.0552h-.4829Z"/><path d="M174.497,358.1555h-.4863v-.2415a.7044.7044,0,0,1-.5689.2656.7363.7363,0,0,1-.7656-.8139v-1.1206h.4829v1.0517a.4281.4281,0,1,0,.8516,0v-1.0517h.4863Z"/></g><g class="x"><path d="M182.2831,355.7485H183.77v.39h-1.0034v.6172h.769v.3828h-.769v1.0174h-.483Z"/><path d="M184.5912,358.1555h-.4829v-1.91h.4829v.2966a.6624.6624,0,0,1,.5865-.3242v.5068h-.128c-.2861,0-.4585.11-.4585.4795Z"/><path d="M185.4477,355.7346a.297.297,0,1,1,.2969.2827A.2833.2833,0,0,1,185.4477,355.7346Zm.0518.51h.4829v1.91H185.5Z"/></g><g class="x"><path d="M195.0117,358.18c-.5,0-.8863-.2622-.8931-.7172h.5176a.33.33,0,0,0,.3652.32c.2275,0,.3623-.1206.3623-.293,0-.5207-1.2417-.207-1.2383-1.0793,0-.4346.3521-.6965.8487-.6965a.76.76,0,0,1,.8618.686h-.5308a.3183.3183,0,0,0-.3452-.2861c-.19-.0069-.3311.0862-.3311.2827,0,.4829,1.2349.2139,1.2349,1.0622A.76.76,0,0,1,195.0117,358.18Z"/><path d="M197.0263,356.2141a.7554.7554,0,0,1,.6309.3034v-.2724h.4863v1.91h-.4863v-.2793a.7534.7534,0,0,1-.6343.31.9066.9066,0,0,1-.8692-.9932A.8946.8946,0,0,1,197.0263,356.2141Zm.124.424a.5094.5094,0,0,0-.5034.5552.522.522,0,0,0,.5034.5691.5652.5652,0,0,0,0-1.1243Z"/><path d="M198.6884,356.6416h-.2275v-.3965h.2275v-.4724h.4859v.4724h.4277v.3965h-.4277v.9243c0,.1274.0517.1826.2036.1826h.2241v.407h-.3032c-.3658,0-.61-.1553-.61-.5933Z"/></g><path d="M167.6142,349.6147c.8535-.7244,1.748-1.3916,1.748-2.0847,0-.3362-.15-.5637-.5068-.5637-.3467,0-.5381.2483-.543.6465h-.7036a1.1857,1.1857,0,0,1,1.2569-1.2623,1.0894,1.0894,0,0,1,1.2212,1.1382c0,.8741-.8433,1.5569-1.4434,2.0637h1.5259v.6h-2.5552Z"/><path d="M172.017,346.361c1.0655,0,1.3965.8172,1.3965,1.9087,0,1.1018-.331,1.9243-1.3965,1.9243s-1.3969-.8225-1.3969-1.9243C170.62,347.1782,170.9511,346.361,172.017,346.361Zm0,.6724c-.61,0-.6831.59-.6831,1.2363,0,.6724.0728,1.2517.6831,1.2517s.6826-.5793.6826-1.2517C172.7,347.623,172.6274,347.0334,172.017,347.0334Z"/><path d="M173.9155,349.6147c.8535-.7244,1.748-1.3916,1.748-2.0847,0-.3362-.15-.5637-.5068-.5637-.3467,0-.5381.2483-.543.6465H173.91a1.1856,1.1856,0,0,1,1.2568-1.2623,1.0894,1.0894,0,0,1,1.2212,1.1382c0,.8741-.8432,1.5569-1.4433,2.0637h1.5258v.6h-2.5551Z"/><path d="M178.1889,346.3454c.7759,0,1.19.44,1.19.9983a.874.874,0,0,1-.5689.8535v.0208a.8983.8983,0,0,1,.6362.9414A1.0772,1.0772,0,0,1,178.22,350.23a1.1849,1.1849,0,0,1-1.34-1.1638h.7031a.5646.5646,0,0,0,.6211.5586.5.5,0,0,0,.5484-.5276c0-.4243-.2691-.5794-.8072-.5794h-.15v-.5949h.15c.4244,0,.7344-.1189.7344-.4913a.4476.4476,0,0,0-.5117-.4709.49.49,0,0,0-.5278.4656h-.7085A1.12,1.12,0,0,1,178.1889,346.3454Z"/><polyline class="y" points="162.125 347.846 163.253 348.973 164.364 347.861"/><polyline class="z" points="196.926 351.663 198.848 349.741 196.952 347.846"/><polyline class="z" points="120.689 351.663 118.767 349.741 120.662 347.846"/><path d="M196.6625,366.1477h-.3344v-.4449h.831v2.514h-.4966Z"/><path d="M195.9789,377.8086c0-.3621.2759-.6761.8482-.6761s.8481.3174.8481.6761a.6036.6036,0,0,1-.3413.5551.6429.6429,0,0,1,.4038.6172.9214.9214,0,0,1-1.8174,0,.6359.6359,0,0,1,.4034-.6172A.59.59,0,0,1,195.9789,377.8086Zm.4068,1.1516a.4429.4429,0,0,0,.8794,0,.3848.3848,0,0,0-.438-.3863C196.5756,378.5739,196.3857,378.705,196.3857,378.96Zm.8208-1.0828a.3783.3783,0,0,0-.7554.0034.3433.3433,0,0,0,.376.3416A.3469.3469,0,0,0,197.2065,377.8774Z"/><path d="M132.2148,389.1045H131.88V388.66h.8311v2.5139h-.4966Z"/><path d="M134.1166,388.6113c.71,0,.9312.5449.9312,1.2724,0,.7347-.2207,1.283-.9312,1.283s-.9311-.5483-.9311-1.283C133.1855,389.1562,133.4062,388.6113,134.1166,388.6113Zm0,.4482c-.4067,0-.455.3933-.455.8242,0,.4485.0483.8348.455.8348s.4551-.3863.4551-.8348C134.5717,389.4528,134.5239,389.06,134.1166,389.06Z"/><path d="M145.5517,389.1045h-.3345V388.66h.8311v2.5139h-.4966Z"/><path d="M146.7983,389.1045h-.3345V388.66h.8311v2.5139h-.4966Z"/><path d="M157.6645,389.1045H157.33V388.66h.8311v2.5139h-.4966Z"/><path d="M158.6078,390.7805c.5689-.4829,1.1656-.9278,1.1656-1.39,0-.2241-.1-.3757-.3379-.3757-.231,0-.3589.1655-.3623.4309h-.4688a.79.79,0,0,1,.8379-.8413.726.726,0,0,1,.814.7585c0,.583-.5625,1.0381-.9624,1.376h1.0176v.4h-1.7037Z"/><path d="M170.062,389.1045h-.3345V388.66h.831v2.5139h-.4965Z"/><path d="M171.8779,388.601c.5171,0,.7929.293.7929.6656a.5836.5836,0,0,1-.3794.5691v.0136a.599.599,0,0,1,.4244.6277.7182.7182,0,0,1-.8174.7139.79.79,0,0,1-.8931-.7761h.4688a.3766.3766,0,0,0,.414.3725.3333.3333,0,0,0,.3653-.3518c0-.2827-.1792-.3862-.5376-.3862h-.1v-.3965h.1c.2827,0,.49-.0794.49-.3276a.2988.2988,0,0,0-.3418-.3138.3266.3266,0,0,0-.3516.31H171.04A.7469.7469,0,0,1,171.8779,388.601Z"/><path d="M182.8036,389.1045h-.3344V388.66h.831v2.5139h-.4966Z"/><path d="M184.9609,390.6838h-1.2071v-.3794l1.1275-1.6138h.5625v1.5725h.3032v.4207h-.3032v.49h-.4829Zm.0307-.4207V389.208l-.7065,1.0551Z"/><path d="M195.5536,389.1045h-.3344V388.66h.831v2.5139h-.4966Z"/><path d="M198.2143,388.6528v.4241h-1.1172v.59a.6554.6554,0,0,1,.4932-.2034.7565.7565,0,0,1,.7861.831.89.89,0,0,1-1.7622.169h.4687a.3938.3938,0,0,0,.4175.3035c.2827,0,.41-.2.41-.4656a.3819.3819,0,0,0-.4136-.438.3758.3758,0,0,0-.3794.2656h-.4619v-1.4758Z"/><path d="M132.3832,400.5822h-.3344v-.4448h.831v2.5139h-.4966Z"/><path d="M134.954,400.1442v.3587l-.917,2.1484h-.49l.9243-2.0932h-1.18v-.4139Z"/><path d="M145.0678,400.5822h-.3345v-.4448h.8311v2.5139h-.4966Z"/><path d="M146.1147,400.7651c0-.3621.2759-.676.8481-.676s.8482.3174.8482.676a.6039.6039,0,0,1-.3413.5552.6429.6429,0,0,1,.4038.6172.9214.9214,0,0,1-1.8174,0,.6358.6358,0,0,1,.4033-.6172A.59.59,0,0,1,146.1147,400.7651Zm.4067,1.1516a.4429.4429,0,0,0,.8794,0,.3847.3847,0,0,0-.438-.3862C146.7114,401.5305,146.5214,401.6616,146.5214,401.9167Zm.8208-1.0828a.3783.3783,0,0,0-.7553.0035.3431.3431,0,0,0,.3759.3415A.3469.3469,0,0,0,147.3422,400.8339Z"/><path d="M157.5746,400.5822H157.24v-.4448h.831v2.5139h-.4966Z"/><path d="M159.1039,401.9443a.3572.3572,0,0,0,.39.314c.2832,0,.4072-.2105.4072-.7759a.6513.6513,0,0,1-.5312.2344.7419.7419,0,0,1-.7827-.8035.7824.7824,0,0,1,.8481-.8345c.6831,0,.8936.4619.8936,1.2586,0,.8552-.19,1.3173-.8555,1.3173a.75.75,0,0,1-.8174-.71Zm.752-1.0276a.4036.4036,0,1,0-.3862.407A.37.37,0,0,0,159.8559,400.9167Z"/><path d="M182.65,402.2583c.5689-.483,1.1656-.9278,1.1656-1.39,0-.2242-.1-.3758-.3379-.3758-.231,0-.3589.1656-.3623.4309h-.4688a.79.79,0,0,1,.8379-.8413.7262.7262,0,0,1,.814.7586c0,.5827-.562,1.0381-.9624,1.376h1.0175v.4H182.65Z"/><path d="M184.93,400.5822h-.3345v-.4448h.8311v2.5139H184.93Z"/><path d="M195.0058,402.2583c.5688-.483,1.1655-.9278,1.1655-1.39,0-.2242-.1-.3758-.3379-.3758-.2309,0-.3589.1656-.3623.4309h-.4687a.79.79,0,0,1,.8379-.8413.7261.7261,0,0,1,.8139.7586c0,.5827-.562,1.0381-.9624,1.376h1.0176v.4h-1.7036Z"/><path d="M196.9824,402.2583c.5688-.483,1.1655-.9278,1.1655-1.39,0-.2242-.1-.3758-.3379-.3758-.231,0-.3589.1656-.3623.4309h-.4688a.79.79,0,0,1,.8379-.8413.7262.7262,0,0,1,.814.7586c0,.5827-.562,1.0381-.9624,1.376h1.0176v.4h-1.7036Z"/><path d="M131.52,413.737c.5689-.4829,1.1656-.9277,1.1656-1.39,0-.2241-.1-.3757-.3379-.3757-.231,0-.3589.1655-.3623.4309h-.4688a.79.79,0,0,1,.8379-.8413.726.726,0,0,1,.814.7585c0,.583-.562,1.0381-.9624,1.376h1.0176v.4H131.52Z"/><path d="M134.7109,413.64h-1.2071v-.3794l1.1275-1.6137h.5625V413.22h.3032v.4206h-.3032v.49h-.4829Zm.0307-.4206v-1.0552l-.7065,1.0552Z"/><path d="M144.3979,413.737c.5688-.4829,1.1655-.9277,1.1655-1.39,0-.2241-.1-.3757-.3379-.3757-.2309,0-.3589.1655-.3623.4309h-.4687a.79.79,0,0,1,.8379-.8413.7259.7259,0,0,1,.8139.7585c0,.583-.5625,1.0381-.9624,1.376h1.0176v.4h-1.7036Z"/><path d="M148.0917,411.6093v.4241h-1.1172v.59a.6556.6556,0,0,1,.4932-.2034.7566.7566,0,0,1,.7861.8311.89.89,0,0,1-1.7622.1689h.4688a.3935.3935,0,0,0,.4175.3035c.2827,0,.41-.2.41-.4656a.3818.3818,0,0,0-.4135-.438.3758.3758,0,0,0-.3794.2657h-.462v-1.4759Z"/><path d="M156.8823,413.737c.5688-.4829,1.1655-.9277,1.1655-1.39,0-.2241-.1-.3757-.3379-.3757-.231,0-.3589.1655-.3623.4309h-.4688a.79.79,0,0,1,.8379-.8413.726.726,0,0,1,.814.7585c0,.583-.5625,1.0381-.9624,1.376h1.0176v.4h-1.7036Z"/><path d="M160.19,412.2439a.3307.3307,0,0,0-.3623-.29c-.3135,0-.4585.2346-.4654.8139a.67.67,0,0,1,.5865-.2932.7374.7374,0,0,1,.7617.8208.7844.7844,0,0,1-.8379.8413c-.7446,0-.9312-.5241-.9312-1.3034,0-.8208.2657-1.2759.9039-1.2759a.7372.7372,0,0,1,.7929.6863Zm-.7827,1.0449a.4034.4034,0,0,0,.4414.4377.4281.4281,0,0,0-.01-.8552A.399.399,0,0,0,159.4072,413.2888Z"/><path d="M169.4819,413.737c.5688-.4829,1.1655-.9277,1.1655-1.39,0-.2241-.1-.3757-.3379-.3757-.2309,0-.3589.1655-.3623.4309h-.4687a.79.79,0,0,1,.8378-.8413.726.726,0,0,1,.814.7585c0,.583-.5625,1.0381-.9624,1.376h1.0176v.4h-1.7036Z"/><path d="M173.0859,411.623v.3586l-.917,2.1485h-.49l.9244-2.0933h-1.18v-.4138Z"/><path d="M182.1664,413.737c.5689-.4829,1.1656-.9277,1.1656-1.39,0-.2241-.1-.3757-.3379-.3757-.231,0-.3589.1655-.3623.4309h-.4688a.79.79,0,0,1,.8379-.8413.726.726,0,0,1,.814.7585c0,.583-.5625,1.0381-.9624,1.376H183.87v.4h-1.7037Z"/><path d="M184.2465,412.2439c0-.3624.2759-.6761.8482-.6761s.8481.3174.8481.6761a.6036.6036,0,0,1-.3413.5551.6432.6432,0,0,1,.4038.6172.9214.9214,0,0,1-1.8174,0,.6362.6362,0,0,1,.4033-.6172A.59.59,0,0,1,184.2465,412.2439Zm.4068,1.1516a.4429.4429,0,0,0,.8794,0,.3848.3848,0,0,0-.438-.3863C184.8432,413.0092,184.6533,413.14,184.6533,413.3955Zm.8208-1.0828a.3783.3783,0,0,0-.7554.0034.3433.3433,0,0,0,.376.3416A.3469.3469,0,0,0,185.4741,412.3127Z"/><path d="M194.9164,413.737c.5689-.4829,1.1656-.9277,1.1656-1.39,0-.2241-.1-.3757-.3379-.3757-.231,0-.3589.1655-.3623.4309h-.4688a.79.79,0,0,1,.8379-.8413.726.726,0,0,1,.814.7585c0,.583-.5625,1.0381-.9624,1.376H196.62v.4h-1.7037Z"/><path d="M197.4789,413.4231a.3572.3572,0,0,0,.39.3139c.2832,0,.4072-.21.4072-.7759a.6513.6513,0,0,1-.5312.2344.7418.7418,0,0,1-.7827-.8035.7823.7823,0,0,1,.8481-.8344c.6831,0,.8936.4621.8936,1.2585,0,.8552-.19,1.3174-.8555,1.3174a.75.75,0,0,1-.8174-.71Zm.752-1.0276a.4036.4036,0,1,0-.3862.4069A.37.37,0,0,0,198.2309,412.3955Z"/><path d="M132.8647,423.0361c.5171,0,.793.293.793.6655a.5836.5836,0,0,1-.3794.5691v.0137a.5988.5988,0,0,1,.4243.6277.7181.7181,0,0,1-.8174.7138.79.79,0,0,1-.8931-.7761h.4688a.3763.3763,0,0,0,.414.3726.3333.3333,0,0,0,.3653-.3518c0-.2828-.1792-.3863-.5376-.3863h-.1v-.3965h.1c.2827,0,.49-.0793.49-.3276a.2988.2988,0,0,0-.3418-.3137.3265.3265,0,0,0-.3515.31h-.4727A.7468.7468,0,0,1,132.8647,423.0361Z"/><path d="M134.3578,423.54h-.3344v-.4448h.831v2.5139h-.4966Z"/><g class="aa"><path d="M119.1166,367.8237c.5689-.4829,1.1656-.9277,1.1656-1.39,0-.2241-.1-.3757-.3379-.3757-.231,0-.3589.1655-.3623.4309h-.4688a.79.79,0,0,1,.8379-.8413.7262.7262,0,0,1,.814.7585c0,.5828-.5625,1.0381-.9624,1.376H120.82v.4h-1.7037Z"/><path d="M122.4243,366.3305a.3308.3308,0,0,0-.3623-.29c-.3135,0-.4585.2346-.4654.814a.6694.6694,0,0,1,.5864-.2932.7374.7374,0,0,1,.7618.8208.7844.7844,0,0,1-.8379.8413c-.7447,0-.9312-.5242-.9312-1.3035,0-.8208.2656-1.2759.9038-1.2759a.7373.7373,0,0,1,.793.6863Zm-.7828,1.0447a.4035.4035,0,0,0,.4414.438.4281.4281,0,0,0-.01-.8552A.399.399,0,0,0,121.6415,367.3752Z"/><path d="M131.7153,367.8237c.5688-.4829,1.1655-.9277,1.1655-1.39,0-.2241-.1-.3757-.3379-.3757-.2309,0-.3589.1655-.3623.4309h-.4687a.79.79,0,0,1,.8378-.8413.7262.7262,0,0,1,.814.7585c0,.5828-.5625,1.0381-.9624,1.376h1.0176v.4h-1.7036Z"/><path d="M135.3193,365.71v.3586l-.917,2.1485h-.49l.9244-2.0933h-1.18V365.71Z"/><path d="M144.4,367.8237c.5689-.4829,1.1656-.9277,1.1656-1.39,0-.2241-.1-.3757-.3379-.3757-.231,0-.3589.1655-.3623.4309h-.4688a.79.79,0,0,1,.8379-.8413.7262.7262,0,0,1,.814.7585c0,.5828-.5625,1.0381-.9624,1.376h1.0176v.4H144.4Z"/><path d="M146.48,366.3305c0-.362.2759-.676.8482-.676s.8481.3174.8481.676a.6037.6037,0,0,1-.3413.5552.643.643,0,0,1,.4038.6172.9214.9214,0,0,1-1.8174,0,.636.636,0,0,1,.4033-.6172A.59.59,0,0,1,146.48,366.3305Zm.4068,1.1516a.4429.4429,0,0,0,.8794,0,.3847.3847,0,0,0-.438-.3862C147.0766,367.0959,146.8867,367.227,146.8867,367.4821Zm.8208-1.0827a.3783.3783,0,0,0-.7554.0034.3432.3432,0,0,0,.376.3415A.3468.3468,0,0,0,147.7075,366.3994Z"/><path d="M156.9067,367.8237c.5688-.4829,1.1655-.9277,1.1655-1.39,0-.2241-.1-.3757-.3379-.3757-.2309,0-.3589.1655-.3623.4309h-.4687a.79.79,0,0,1,.8378-.8413.7261.7261,0,0,1,.814.7585c0,.5828-.5625,1.0381-.9624,1.376H158.61v.4h-1.7036Z"/><path d="M159.4692,367.51a.3571.3571,0,0,0,.39.314c.2832,0,.4073-.21.4073-.7759a.6516.6516,0,0,1-.5313.2344.7419.7419,0,0,1-.7827-.8035.7825.7825,0,0,1,.8481-.8345c.6831,0,.8936.462.8936,1.2586,0,.8552-.19,1.3174-.8555,1.3174a.75.75,0,0,1-.8174-.71Zm.7519-1.0276a.4036.4036,0,1,0-.3862.407A.37.37,0,0,0,160.2211,366.4821Z"/><path d="M170.1425,365.6442c.5171,0,.793.293.793.6656a.583.583,0,0,1-.3794.5688v.0139a.5989.5989,0,0,1,.4243.6277.7182.7182,0,0,1-.8174.7139.79.79,0,0,1-.893-.7759h.4687a.3766.3766,0,0,0,.4141.3723.3331.3331,0,0,0,.3652-.3518c0-.2827-.1792-.3862-.5376-.3862h-.1v-.3965h.1c.2827,0,.49-.0793.49-.3276a.2988.2988,0,0,0-.3418-.3138.3266.3266,0,0,0-.3516.31h-.4727A.7469.7469,0,0,1,170.1425,365.6442Z"/><path d="M172.291,365.6545c.71,0,.9311.5449.9311,1.2725,0,.7346-.2207,1.2829-.9311,1.2829s-.9312-.5483-.9312-1.2829C171.36,366.1994,171.5805,365.6545,172.291,365.6545Zm0,.4482c-.4068,0-.4551.3934-.4551.8243,0,.4482.0483.8344.4551.8344s.455-.3862.455-.8344C172.746,366.4961,172.6982,366.1027,172.291,366.1027Z"/><path d="M183.4794,365.6442c.5171,0,.793.293.793.6656a.583.583,0,0,1-.3794.5688v.0139a.5989.5989,0,0,1,.4243.6277.7182.7182,0,0,1-.8174.7139.79.79,0,0,1-.893-.7759h.4687a.3766.3766,0,0,0,.4141.3723.3331.3331,0,0,0,.3652-.3518c0-.2827-.1792-.3862-.5376-.3862h-.1v-.3965h.1c.2827,0,.49-.0793.49-.3276a.2988.2988,0,0,0-.3418-.3138.3266.3266,0,0,0-.3516.31h-.4726A.7468.7468,0,0,1,183.4794,365.6442Z"/><path d="M184.9726,366.1477h-.3345v-.4449h.8311v2.514h-.4966Z"/><path d="M120.2187,379.3017c.5688-.4829,1.1655-.9277,1.1655-1.39,0-.2241-.1-.3757-.3379-.3757-.2309,0-.3589.1655-.3623.4309h-.4687a.79.79,0,0,1,.8379-.8413.7261.7261,0,0,1,.8139.7585c0,.5828-.562,1.0381-.9624,1.376h1.0176v.4h-1.7036Z"/><path d="M120.7153,390.4665a.3571.3571,0,0,0,.39.314c.2832,0,.4072-.2105.4072-.7759a.6513.6513,0,0,1-.5312.2344.7419.7419,0,0,1-.7827-.8035.7825.7825,0,0,1,.8481-.8345c.6831,0,.8936.4622.8936,1.2586,0,.8552-.19,1.3174-.8555,1.3174a.75.75,0,0,1-.8174-.7105Zm.7519-1.0276a.4036.4036,0,1,0-.3862.407A.37.37,0,0,0,121.4672,389.4389Z"/><path d="M119.7851,400.5822h-.3345v-.4448h.8311v2.5139h-.4966Z"/><path d="M122.06,400.7651a.3307.3307,0,0,0-.3623-.29c-.3135,0-.4585.2346-.4653.814a.6693.6693,0,0,1,.5864-.2932.7374.7374,0,0,1,.7617.8208.7845.7845,0,0,1-.8379.8413c-.7446,0-.9311-.5242-.9311-1.3035,0-.8208.2656-1.2759.9038-1.2759a.7373.7373,0,0,1,.793.6863Zm-.7827,1.0447a.4035.4035,0,0,0,.4414.438.4281.4281,0,0,0-.01-.8553A.3992.3992,0,0,0,121.2768,401.81Z"/><path d="M119.1874,413.737c.5689-.4829,1.1656-.9277,1.1656-1.39,0-.2241-.1-.3757-.3379-.3757-.231,0-.3589.1655-.3623.4309h-.4688a.79.79,0,0,1,.8379-.8413.726.726,0,0,1,.814.7585c0,.583-.562,1.0381-.9624,1.376h1.0176v.4h-1.7037Z"/><path d="M122.0366,411.5576c.517,0,.7929.2929.7929.6655a.5836.5836,0,0,1-.3794.5691v.0137a.5988.5988,0,0,1,.4244.6277.7181.7181,0,0,1-.8174.7138.79.79,0,0,1-.8931-.7761h.4688a.3763.3763,0,0,0,.414.3726.3332.3332,0,0,0,.3652-.3519c0-.2827-.1792-.3862-.5375-.3862h-.1v-.3965h.1c.2827,0,.49-.0793.49-.3276a.2988.2988,0,0,0-.3418-.3137.3266.3266,0,0,0-.3516.31h-.4726A.7468.7468,0,0,1,122.0366,411.5576Z"/><path d="M119.936,423.0361c.5171,0,.7929.293.7929.6655a.5835.5835,0,0,1-.3794.5691v.0137a.5988.5988,0,0,1,.4244.6277.7181.7181,0,0,1-.8174.7138.79.79,0,0,1-.8931-.7761h.4688a.3763.3763,0,0,0,.414.3726.3333.3333,0,0,0,.3653-.3518c0-.2828-.1792-.3863-.5376-.3863h-.1v-.3965h.1c.2827,0,.49-.0793.49-.3276a.2988.2988,0,0,0-.3418-.3137.3264.3264,0,0,0-.3515.31h-.4727A.7468.7468,0,0,1,119.936,423.0361Z"/><path d="M122.0844,423.0463c.71,0,.9312.545.9312,1.2725,0,.7346-.2207,1.283-.9312,1.283s-.9311-.5484-.9311-1.283C121.1533,423.5913,121.374,423.0463,122.0844,423.0463Zm0,.4483c-.4067,0-.4551.3933-.4551.8242,0,.4485.0484.8347.4551.8347s.4551-.3862.4551-.8347C122.54,423.8879,122.4916,423.4946,122.0844,423.4946Z"/><path d="M146.1752,423.54h-.3344v-.4448h.831v2.5139h-.4966Z"/><path d="M157.9843,425.2155c.5689-.4829,1.1655-.9277,1.1655-1.39,0-.2241-.1-.3757-.3378-.3757-.231,0-.3589.1655-.3624.4309h-.4687a.79.79,0,0,1,.8379-.8413.7261.7261,0,0,1,.814.7586c0,.583-.5621,1.038-.9625,1.3759h1.0176v.4h-1.7036Z"/><path d="M171.2548,423.0361c.5171,0,.793.293.793.6655a.5836.5836,0,0,1-.3794.5691v.0137a.5987.5987,0,0,1,.4243.6277.7181.7181,0,0,1-.8174.7138.79.79,0,0,1-.893-.7761h.4687a.3767.3767,0,0,0,.4141.3726.3332.3332,0,0,0,.3652-.3518c0-.2828-.1792-.3863-.5376-.3863h-.1v-.3965h.1c.2827,0,.49-.0793.49-.3276a.2988.2988,0,0,0-.3418-.3137.3266.3266,0,0,0-.3516.31h-.4727A.7469.7469,0,0,1,171.2548,423.0361Z"/><path d="M184.3373,425.1189H183.13V424.74l1.1275-1.6138h.5625v1.5725h.3032v.4207H184.82v.49h-.483Zm.0308-.4207V423.643l-.7065,1.0552Z"/><path d="M197.5908,423.0878v.4241h-1.1172v.59a.6555.6555,0,0,1,.4931-.2033.7566.7566,0,0,1,.7862.831.89.89,0,0,1-1.7622.169h.4687a.3935.3935,0,0,0,.4175.3034c.2827,0,.41-.2.41-.4656a.3818.3818,0,0,0-.4135-.4379.3757.3757,0,0,0-.3794.2656h-.4619v-1.4759Z"/><path d="M133.4882,377.1223c.5171,0,.793.2929.793.6655a.583.583,0,0,1-.3794.5688v.014a.5987.5987,0,0,1,.4243.6276.7182.7182,0,0,1-.8174.7139.79.79,0,0,1-.893-.7759h.4687a.3767.3767,0,0,0,.4141.3724.3331.3331,0,0,0,.3652-.3519c0-.2827-.1792-.3862-.5376-.3862h-.1v-.3965h.1c.2827,0,.49-.0793.49-.3276a.2988.2988,0,0,0-.3418-.3137.3266.3266,0,0,0-.3516.31H132.65A.7469.7469,0,0,1,133.4882,377.1223Z"/><path d="M146.5707,379.205h-1.207v-.3791l1.1274-1.614h.5625v1.5725h.3033v.4206h-.3033v.49h-.4829Zm.0308-.4206v-1.0552l-.7065,1.0552Z"/><path d="M159.581,377.174v.4241h-1.1172v.59a.6554.6554,0,0,1,.4932-.2034.7566.7566,0,0,1,.7861.8311.89.89,0,0,1-1.7622.1689h.4687a.3936.3936,0,0,0,.4175.3035c.2827,0,.41-.2.41-.4656a.3816.3816,0,0,0-.4136-.4377.3759.3759,0,0,0-.3794.2654h-.4619V377.174Z"/><path d="M171.6425,377.8086a.3307.3307,0,0,0-.3623-.29c-.3135,0-.4585.2346-.4653.8139a.6693.6693,0,0,1,.5864-.2932.7374.7374,0,0,1,.7617.8208.7844.7844,0,0,1-.8379.8413c-.7446,0-.9311-.5242-.9311-1.3034,0-.8208.2656-1.2759.9038-1.2759a.7373.7373,0,0,1,.793.6863Zm-.7827,1.0446a.4035.4035,0,0,0,.4414.438.4281.4281,0,0,0-.01-.8552A.3992.3992,0,0,0,170.86,378.8532Z"/><path d="M184.9457,377.1877v.3586l-.917,2.1485h-.49l.9243-2.0933h-1.18v-.4138Z"/></g><circle class="e" cx="171.3926" cy="401.4404" r="5.3921"/><path class="d" d="M169.3129,402.2583c.5689-.483,1.1656-.9278,1.1656-1.39,0-.2242-.1-.3758-.3379-.3758-.231,0-.3589.1656-.3623.4309H169.31a.79.79,0,0,1,.8379-.8413.7262.7262,0,0,1,.814.7586c0,.5827-.5625,1.0381-.9624,1.376h1.0175v.4h-1.7036Z"/><path class="d" d="M172.248,400.0891c.71,0,.9311.5449.9311,1.2724,0,.7346-.2207,1.283-.9311,1.283s-.9312-.5484-.9312-1.283C171.3168,400.634,171.5375,400.0891,172.248,400.0891Zm0,.4482c-.4068,0-.4551.3933-.4551.8242,0,.4483.0483.8345.4551.8345s.4551-.3862.4551-.8345C172.7031,400.9306,172.6552,400.5373,172.248,400.5373Z"/><path d="M127.478,437.6933h3.8906v.8587H129.955v4.4453h-1.0635V438.552H127.478Z"/><path d="M132.1445,437.3742h1.0639v1.9375a1.6789,1.6789,0,0,1,2.9483,1.2158v2.47h-1.064v-2.3252a.9468.9468,0,1,0-1.8843,0v2.3252h-1.0639Z"/><path d="M141.1415,442.9973H140.07v-.532a1.553,1.553,0,0,1-1.254.5852,1.6222,1.6222,0,0,1-1.687-1.7935v-2.4694h1.064v2.3176a.9435.9435,0,1,0,1.877,0v-2.3176h1.0712Z"/><path d="M147.2524,441.9865H145.14l-.35,1.0108h-1.1167l1.9072-5.3116h1.2383l1.9077,5.3116h-1.125Zm-1.0567-3.07-.7671,2.2188h1.5347Z"/><path d="M153.415,442.9973h-1.0713v-.532a1.5528,1.5528,0,0,1-1.2539.5852,1.6222,1.6222,0,0,1-1.687-1.7935v-2.4694h1.0639v2.3176a.9435.9435,0,1,0,1.877,0v-2.3176h1.0713Z"/><path d="M156.1132,438.7192a1.6472,1.6472,0,0,1,1.3906.6687v-.6h1.0713v4.24a1.9241,1.9241,0,0,1-2.082,2.0442,1.8858,1.8858,0,0,1-2.12-1.5578h1.0561a1.0876,1.0876,0,0,0,2.0747-.4864v-.6533a1.66,1.66,0,0,1-1.3906.6914,1.9985,1.9985,0,0,1-1.9223-2.1884A1.9712,1.9712,0,0,1,156.1132,438.7192Zm.2735.9346a1.1227,1.1227,0,0,0-1.1094,1.2234,1.1505,1.1505,0,0,0,1.1094,1.2539,1.2453,1.2453,0,0,0,0-2.4773Z"/><path d="M161.2431,442.1311c1.2539-1.064,2.5684-2.0442,2.5684-3.0625,0-.4939-.22-.8282-.7447-.8282-.5088,0-.79.3648-.7978.95h-1.0332a1.7413,1.7413,0,0,1,1.8462-1.854,1.6,1.6,0,0,1,1.7934,1.6717c0,1.2844-1.2383,2.2873-2.12,3.032h2.2417v.8815h-3.7539Z"/><path d="M167.7182,437.3513c1.5654,0,2.0518,1.2007,2.0518,2.8039,0,1.6187-.4864,2.8269-2.0518,2.8269s-2.0518-1.2082-2.0518-2.8269C165.6664,438.552,166.1528,437.3513,167.7182,437.3513Zm0,.9878c-.897,0-1.0034.8664-1.0034,1.8161,0,.9881.1064,1.8391,1.0034,1.8391s1.0029-.851,1.0029-1.8391C168.7211,439.2055,168.6147,438.3391,167.7182,438.3391Z"/><path d="M172.3232,442.1311c1.2539-1.064,2.5683-2.0442,2.5683-3.0625,0-.4939-.22-.8282-.7446-.8282-.5088,0-.79.3648-.7978.95h-1.0332a1.7411,1.7411,0,0,1,1.8461-1.854,1.6,1.6,0,0,1,1.7935,1.6717c0,1.2844-1.2383,2.2873-2.12,3.032h2.2417v.8815h-3.7539Z"/><path d="M178.7983,437.3513c1.5654,0,2.0517,1.2007,2.0517,2.8039,0,1.6187-.4863,2.8269-2.0517,2.8269s-2.0518-1.2082-2.0518-2.8269C176.7465,438.552,177.2328,437.3513,178.7983,437.3513Zm0,.9878c-.897,0-1.0034.8664-1.0034,1.8161,0,.9881.1064,1.8391,1.0034,1.8391s1.0029-.851,1.0029-1.8391C179.8012,439.2055,179.6948,438.3391,178.7983,438.3391Z"/><path d="M181.5952,442.1311c1.2539-1.064,2.5683-2.0442,2.5683-3.0625,0-.4939-.22-.8282-.7446-.8282-.5088,0-.79.3648-.7979.95h-1.0332a1.7413,1.7413,0,0,1,1.8462-1.854,1.6,1.6,0,0,1,1.7935,1.6717c0,1.2844-1.2388,2.2873-2.12,3.032h2.2417v.8815h-3.7539Z"/><path d="M187.88,437.3286c1.14,0,1.7476.6457,1.7476,1.4665a1.2848,1.2848,0,0,1-.836,1.2539v.03a1.32,1.32,0,0,1,.9346,1.3831,1.5824,1.5824,0,0,1-1.8008,1.573,1.741,1.741,0,0,1-1.9682-1.71h1.0337a.8287.8287,0,0,0,.9116.8208.7345.7345,0,0,0,.8056-.7751c0-.6231-.395-.8511-1.1855-.8511h-.22v-.8738h.22c.623,0,1.0791-.1748,1.0791-.7219a.6579.6579,0,0,0-.7524-.6914.72.72,0,0,0-.7749.6838h-1.0411A1.6449,1.6449,0,0,1,187.88,437.3286Z"/><rect class="z" x="114.4717" y="447.8815" width="19.353" height="8.9615" rx="0.9806"/><path d="M119.7114,451.1806c.7168,0,.9394.55.9394,1.284,0,.7409-.2226,1.2939-.9394,1.2939s-.939-.553-.939-1.2939C118.7724,451.73,118.9951,451.1806,119.7114,451.1806Zm0,.4524c-.41,0-.459.3965-.459.8316,0,.4521.0488.8418.459.8418s.4594-.39.4594-.8418C120.1708,452.03,120.122,451.633,119.7114,451.633Z"/><path d="M121.8408,453.0524a.36.36,0,0,0,.393.3165c.2852,0,.4107-.2122.4107-.7828a.6562.6562,0,0,1-.5357.2366.7485.7485,0,0,1-.79-.81.79.79,0,0,1,.8559-.8421c.689,0,.9009.4663.9009,1.27,0,.8628-.1914,1.3289-.8628,1.3289a.7565.7565,0,0,1-.8242-.7166Zm.7583-1.0368a.4071.4071,0,1,0-.39.4106A.3729.3729,0,0,0,122.5991,452.0156Z"/><path d="M123.9833,452.35a.2855.2855,0,1,1,.2959-.2852A.2863.2863,0,0,1,123.9833,452.35Zm0,1.44a.2855.2855,0,1,1,.2959-.2854A.2863.2863,0,0,1,123.9833,453.79Z"/><path d="M125.8237,451.1806c.7168,0,.9394.55.9394,1.284,0,.7409-.2226,1.2939-.9394,1.2939s-.939-.553-.939-1.2939C124.8847,451.73,125.1074,451.1806,125.8237,451.1806Zm0,.4524c-.41,0-.459.3965-.459.8316,0,.4521.0488.8418.459.8418s.4594-.39.4594-.8418C126.2831,452.03,126.2343,451.633,125.8237,451.633Z"/><path d="M128.3286,451.1806c.7167,0,.9394.55.9394,1.284,0,.7409-.2227,1.2939-.9394,1.2939s-.939-.553-.939-1.2939C127.39,451.73,127.6122,451.1806,128.3286,451.1806Zm0,.4524c-.41,0-.459.3965-.459.8316,0,.4521.0488.8418.459.8418s.4594-.39.4594-.8418C128.788,452.03,128.7392,451.633,128.3286,451.633Z"/><rect class="z" x="137.5069" y="447.8815" width="19.353" height="8.9615" rx="0.9806"/><path d="M142.8281,451.1806c.7168,0,.9394.55.9394,1.284,0,.7409-.2226,1.2939-.9394,1.2939s-.939-.553-.939-1.2939C141.8891,451.73,142.1118,451.1806,142.8281,451.1806Zm0,.4524c-.41,0-.459.3965-.459.8316,0,.4521.0488.8418.459.8418s.4594-.39.4594-.8418C143.2875,452.03,143.2387,451.633,142.8281,451.633Z"/><path d="M144.9575,453.0524a.36.36,0,0,0,.393.3165c.2852,0,.4107-.2122.4107-.7828a.6572.6572,0,0,1-.5362.2366.7484.7484,0,0,1-.79-.81.79.79,0,0,1,.8559-.8421c.689,0,.9009.4663.9009,1.27,0,.8628-.1914,1.3289-.8628,1.3289a.7565.7565,0,0,1-.8242-.7166Zm.7583-1.0368a.4071.4071,0,1,0-.39.4106A.3729.3729,0,0,0,145.7158,452.0156Z"/><path d="M147.1,452.35a.2855.2855,0,1,1,.2959-.2852A.2868.2868,0,0,1,147.1,452.35Zm0,1.44a.2855.2855,0,1,1,.2959-.2854A.2867.2867,0,0,1,147.1,453.79Z"/><path d="M148.8535,451.17c.5219,0,.8.2959.8.6717a.5876.5876,0,0,1-.3828.5739v.0139a.6043.6043,0,0,1,.4283.6331.7247.7247,0,0,1-.8247.72.7966.7966,0,0,1-.9009-.7827h.4731a.3793.3793,0,0,0,.4175.3757.3362.3362,0,0,0,.3686-.3547c0-.2854-.1811-.39-.5429-.39h-.1006v-.4h.1006c.2856,0,.4941-.08.4941-.3306a.3011.3011,0,0,0-.3442-.3166.33.33,0,0,0-.355.3132h-.4766A.7532.7532,0,0,1,148.8535,451.17Z"/><path d="M151.2817,451.1806c.7168,0,.9394.55.9394,1.284,0,.7409-.2226,1.2939-.9394,1.2939s-.939-.553-.939-1.2939C150.3427,451.73,150.5654,451.1806,151.2817,451.1806Zm0,.4524c-.41,0-.459.3965-.459.8316,0,.4521.0488.8418.459.8418s.4594-.39.4594-.8418C151.7411,452.03,151.6923,451.633,151.2817,451.633Z"/><rect class="z" x="160.542" y="447.8815" width="19.353" height="8.9615" rx="0.9806"/><path d="M165.5805,451.6782h-.3379V451.23h.8389v2.5361h-.501Z"/><path d="M167.7578,451.1806c.7167,0,.9394.55.9394,1.284,0,.7409-.2227,1.2939-.9394,1.2939s-.939-.553-.939-1.2939C166.8188,451.73,167.0414,451.1806,167.7578,451.1806Zm0,.4524c-.41,0-.459.3965-.459.8316,0,.4521.0488.8418.459.8418s.4594-.39.4594-.8418C168.2172,452.03,168.1684,451.633,167.7578,451.633Z"/><path d="M169.5947,452.35a.2855.2855,0,1,1,.2959-.2852A.2864.2864,0,0,1,169.5947,452.35Zm0,1.44a.2855.2855,0,1,1,.2959-.2854A.2863.2863,0,0,1,169.5947,453.79Z"/><path d="M171.435,451.1806c.7168,0,.94.55.94,1.284,0,.7409-.2227,1.2939-.94,1.2939s-.939-.553-.939-1.2939C170.496,451.73,170.7187,451.1806,171.435,451.1806Zm0,.4524c-.41,0-.459.3965-.459.8316,0,.4521.0488.8418.459.8418s.4595-.39.4595-.8418C171.8945,452.03,171.8456,451.633,171.435,451.633Z"/><path d="M173.94,451.1806c.7168,0,.9394.55.9394,1.284,0,.7409-.2226,1.2939-.9394,1.2939s-.939-.553-.939-1.2939C173.0009,451.73,173.2236,451.1806,173.94,451.1806Zm0,.4524c-.41,0-.459.3965-.459.8316,0,.4521.0488.8418.459.8418s.46-.39.46-.8418C174.3994,452.03,174.3505,451.633,173.94,451.633Z"/><rect class="z" x="183.5772" y="447.8815" width="19.353" height="8.9615" rx="0.9806"/><path d="M188.6977,451.6782H188.36V451.23h.8389v2.5361h-.501Z"/><path d="M190.8749,451.1806c.7168,0,.94.55.94,1.284,0,.7409-.2227,1.2939-.94,1.2939s-.9389-.553-.9389-1.2939C189.936,451.73,190.1586,451.1806,190.8749,451.1806Zm0,.4524c-.41,0-.4589.3965-.4589.8316,0,.4521.0488.8418.4589.8418s.4595-.39.4595-.8418C191.3344,452.03,191.2856,451.633,190.8749,451.633Z"/><path d="M192.7119,452.35a.2855.2855,0,1,1,.2959-.2852A.2864.2864,0,0,1,192.7119,452.35Zm0,1.44a.2855.2855,0,1,1,.2959-.2854A.2863.2863,0,0,1,192.7119,453.79Z"/><path d="M194.4653,451.17c.5219,0,.8.2959.8.6717a.5877.5877,0,0,1-.3828.5739v.0139a.6047.6047,0,0,1,.4282.6331.7247.7247,0,0,1-.8247.72.7966.7966,0,0,1-.9009-.7827h.4731a.3793.3793,0,0,0,.4175.3757.3363.3363,0,0,0,.3687-.3547c0-.2854-.1812-.39-.543-.39h-.1006v-.4h.1006c.2856,0,.4941-.08.4941-.3306a.301.301,0,0,0-.3442-.3166.33.33,0,0,0-.355.3132H193.62A.7531.7531,0,0,1,194.4653,451.17Z"/><path d="M196.8935,451.1806c.7168,0,.9394.55.9394,1.284,0,.7409-.2226,1.2939-.9394,1.2939s-.939-.553-.939-1.2939C195.9545,451.73,196.1772,451.1806,196.8935,451.1806Zm0,.4524c-.41,0-.459.3965-.459.8316,0,.4521.0488.8418.459.8418s.46-.39.46-.8418C197.353,452.03,197.3041,451.633,196.8935,451.633Z"/><rect class="z" x="114.4717" y="459.4843" width="19.353" height="8.9615" rx="0.9806"/><path d="M120.0038,463.2817h-.3374v-.4487h.8384v2.5361h-.501Z"/><path d="M121.52,463.2817h-.3374v-.4487h.8384v2.5361h-.501Z"/><path d="M123.03,463.9531a.2855.2855,0,1,1,.2959-.2852A.2863.2863,0,0,1,123.03,463.9531Zm0,1.44a.2854.2854,0,1,1,.2959-.2854A.2863.2863,0,0,1,123.03,465.3935Z"/><path d="M124.8705,462.7841c.7168,0,.9395.55.9395,1.284,0,.7409-.2227,1.2939-.9395,1.2939s-.9389-.553-.9389-1.2939C123.9316,463.3339,124.1542,462.7841,124.8705,462.7841Zm0,.4524c-.41,0-.4589.3965-.4589.8316,0,.4521.0488.8418.4589.8418s.4595-.39.4595-.8418C125.33,463.633,125.2812,463.2365,124.8705,463.2365Z"/><path d="M127.3749,462.7841c.7168,0,.94.55.94,1.284,0,.7409-.2227,1.2939-.94,1.2939s-.9389-.553-.9389-1.2939C126.436,463.3339,126.6586,462.7841,127.3749,462.7841Zm0,.4524c-.41,0-.4589.3965-.4589.8316,0,.4521.0488.8418.4589.8418s.46-.39.46-.8418C127.8344,463.633,127.7856,463.2365,127.3749,463.2365Z"/><rect class="z" x="137.5069" y="459.4843" width="19.353" height="8.9615" rx="0.9806"/><path d="M143.121,463.2817h-.3374v-.4487h.8384v2.5361h-.501Z"/><path d="M144.6376,463.2817H144.3v-.4487h.8384v2.5361h-.501Z"/><path d="M146.1474,463.9531a.2855.2855,0,1,1,.2959-.2852A.2863.2863,0,0,1,146.1474,463.9531Zm0,1.44a.2854.2854,0,1,1,.2959-.2854A.2863.2863,0,0,1,146.1474,465.3935Z"/><path d="M147.9008,462.7736c.522,0,.8.2959.8.6717a.5876.5876,0,0,1-.3828.5739v.014a.6045.6045,0,0,1,.4282.633.7247.7247,0,0,1-.8247.72.7966.7966,0,0,1-.9009-.7827h.4732a.3792.3792,0,0,0,.4175.3758.3363.3363,0,0,0,.3686-.3548c0-.2854-.1811-.39-.543-.39h-.1005v-.4h.1005c.2857,0,.4942-.08.4942-.3305a.3011.3011,0,0,0-.3443-.3167.33.33,0,0,0-.3549.3132h-.4766A.7531.7531,0,0,1,147.9008,462.7736Z"/><path d="M150.3286,462.7841c.7167,0,.9394.55.9394,1.284,0,.7409-.2227,1.2939-.9394,1.2939s-.939-.553-.939-1.2939C149.39,463.3339,149.6122,462.7841,150.3286,462.7841Zm0,.4524c-.41,0-.459.3965-.459.8316,0,.4521.0488.8418.459.8418s.4594-.39.4594-.8418C150.788,463.633,150.7392,463.2365,150.3286,463.2365Z"/><rect class="z" x="160.542" y="459.4843" width="19.353" height="8.9615" rx="0.9806"/><path d="M165.706,463.2817h-.3374v-.4487h.8384v2.5361h-.501Z"/><path d="M166.9164,464.9724c.5738-.4868,1.1758-.9358,1.1758-1.4019,0-.2261-.1011-.3794-.3408-.3794-.2334,0-.3618.167-.3652.4351h-.4737a.7974.7974,0,0,1,.8457-.8489.7324.7324,0,0,1,.8208.7654c0,.5879-.5669,1.0471-.97,1.3882h1.0259v.4033h-1.7183Z"/><path d="M169.47,463.9531a.2855.2855,0,1,1,.2959-.2852A.2864.2864,0,0,1,169.47,463.9531Zm0,1.44a.2854.2854,0,1,1,.2959-.2854A.2863.2863,0,0,1,169.47,465.3935Z"/><path d="M171.31,462.7841c.7168,0,.94.55.94,1.284,0,.7409-.2227,1.2939-.94,1.2939s-.939-.553-.939-1.2939C170.371,463.3339,170.5937,462.7841,171.31,462.7841Zm0,.4524c-.41,0-.459.3965-.459.8316,0,.4521.0488.8418.459.8418s.4595-.39.4595-.8418C171.77,463.633,171.7206,463.2365,171.31,463.2365Z"/><path d="M173.8149,462.7841c.7168,0,.9394.55.9394,1.284,0,.7409-.2226,1.2939-.9394,1.2939s-.939-.553-.939-1.2939C172.8759,463.3339,173.0986,462.7841,173.8149,462.7841Zm0,.4524c-.41,0-.459.3965-.459.8316,0,.4521.0488.8418.459.8418s.46-.39.46-.8418C174.2744,463.633,174.2255,463.2365,173.8149,463.2365Z"/><rect class="e" x="183.5772" y="459.4843" width="19.353" height="8.9615" rx="0.9806"/><path class="d" d="M188.8227,463.2817h-.3379v-.4487h.8389v2.5361h-.501Z"/><path class="d" d="M190.0331,464.9724c.5738-.4868,1.1758-.9358,1.1758-1.4019,0-.2261-.1011-.3794-.3408-.3794-.2334,0-.3618.167-.3657.4351H190.03a.797.797,0,0,1,.8452-.8489.7322.7322,0,0,1,.8208.7654c0,.5879-.5669,1.0471-.9707,1.3882h1.0264v.4033h-1.7183Z"/><path class="d" d="M192.5864,463.9531a.2855.2855,0,1,1,.2959-.2852A.2868.2868,0,0,1,192.5864,463.9531Zm0,1.44a.2854.2854,0,1,1,.2959-.2854A.2868.2868,0,0,1,192.5864,465.3935Z"/><path class="d" d="M194.34,462.7736c.522,0,.8.2959.8.6717a.5877.5877,0,0,1-.3828.5739v.014a.604.604,0,0,1,.4282.633.7247.7247,0,0,1-.8247.72.7966.7966,0,0,1-.9009-.7827h.4731a.3793.3793,0,0,0,.4175.3758.3364.3364,0,0,0,.3687-.3548c0-.2854-.1812-.39-.543-.39h-.1006v-.4h.1006c.2857,0,.4941-.08.4941-.3305a.3011.3011,0,0,0-.3442-.3167.33.33,0,0,0-.355.3132h-.4765A.7531.7531,0,0,1,194.34,462.7736Z"/><path class="d" d="M196.768,462.7841c.7168,0,.94.55.94,1.284,0,.7409-.2227,1.2939-.94,1.2939s-.939-.553-.939-1.2939C195.829,463.3339,196.0517,462.7841,196.768,462.7841Zm0,.4524c-.41,0-.459.3965-.459.8316,0,.4521.0488.8418.459.8418s.4595-.39.4595-.8418C197.2275,463.633,197.1786,463.2365,196.768,463.2365Z"/><rect class="z" x="114.4717" y="471.0871" width="19.353" height="8.9615" rx="0.9806"/><path d="M119.52,474.884h-.3374v-.4487h.8384v2.5361h-.501Z"/><path d="M122.0737,475.0683a.3335.3335,0,0,0-.3653-.2922c-.3169,0-.4629.2366-.47.821a.6755.6755,0,0,1,.5913-.2956.7444.7444,0,0,1,.7691.8281.7915.7915,0,0,1-.8457.8486c-.7515,0-.939-.5288-.939-1.3149,0-.8281.2676-1.2871.9111-1.2871a.7436.7436,0,0,1,.8.6921Zm-.79,1.0542a.4072.4072,0,0,0,.4453.4419.4319.4319,0,0,0-.01-.8628A.4028.4028,0,0,0,121.2836,476.1225Z"/><path d="M123.5136,475.5554a.2855.2855,0,1,1,.2959-.2852A.2863.2863,0,0,1,123.5136,475.5554Zm0,1.44a.2854.2854,0,1,1,.2959-.2854A.2863.2863,0,0,1,123.5136,476.9958Z"/><path d="M125.3539,474.3864c.7168,0,.94.55.94,1.2837,0,.7412-.2227,1.2945-.94,1.2945s-.9389-.5533-.9389-1.2945C124.415,474.9362,124.6376,474.3864,125.3539,474.3864Zm0,.4524c-.41,0-.4589.3965-.4589.8313,0,.4524.0488.8421.4589.8421s.46-.39.46-.8421C125.8134,475.2353,125.7646,474.8388,125.3539,474.8388Z"/><path d="M127.8588,474.3864c.7168,0,.94.55.94,1.2837,0,.7412-.2227,1.2945-.94,1.2945s-.9389-.5533-.9389-1.2945C126.92,474.9362,127.1425,474.3864,127.8588,474.3864Zm0,.4524c-.41,0-.459.3965-.459.8313,0,.4524.0489.8421.459.8421s.4595-.39.4595-.8421C128.3183,475.2353,128.27,474.8388,127.8588,474.8388Z"/><rect class="z" x="137.5069" y="471.0871" width="19.353" height="8.9615" rx="0.9806"/><path d="M142.7973,474.884h-.3379v-.4487h.8389v2.5361h-.501Z"/><path d="M145.65,474.4421v.3618l-.9257,2.1675H144.23l.9321-2.1118h-1.19v-.4175Z"/><path d="M146.4706,475.5554a.2855.2855,0,1,1,.2959-.2852A.2863.2863,0,0,1,146.4706,475.5554Zm0,1.44a.2854.2854,0,1,1,.2959-.2854A.2863.2863,0,0,1,146.4706,476.9958Z"/><path d="M148.2241,474.3762c.5219,0,.8.2956.8.6714a.5881.5881,0,0,1-.3829.5739v.014a.6046.6046,0,0,1,.4283.6333.7247.7247,0,0,1-.8247.72.7966.7966,0,0,1-.9009-.7827h.4731a.3793.3793,0,0,0,.4175.3757.3363.3363,0,0,0,.3687-.3549c0-.2852-.1812-.39-.543-.39H147.96v-.4h.1006c.2856,0,.4941-.08.4941-.3306a.3011.3011,0,0,0-.3442-.3166.33.33,0,0,0-.355.3132h-.4766A.753.753,0,0,1,148.2241,474.3762Z"/><path d="M150.6523,474.3864c.7168,0,.9394.55.9394,1.2837,0,.7412-.2226,1.2945-.9394,1.2945s-.939-.5533-.939-1.2945C149.7133,474.9362,149.936,474.3864,150.6523,474.3864Zm0,.4524c-.41,0-.459.3965-.459.8313,0,.4524.0488.8421.459.8421s.4595-.39.4595-.8421C151.1118,475.2353,151.0629,474.8388,150.6523,474.8388Z"/><rect class="z" x="160.542" y="471.0871" width="19.353" height="8.9615" rx="0.9806"/><path d="M165.5859,474.884h-.3374v-.4487h.8384v2.5361h-.501Z"/><path d="M166.9,475.0683c0-.3652.2783-.6819.856-.6819s.8559.32.8559.6819a.61.61,0,0,1-.3442.56.6489.6489,0,0,1,.4067.6226.93.93,0,0,1-1.8335,0,.6424.6424,0,0,1,.4073-.6226A.5953.5953,0,0,1,166.9,475.0683Zm.4107,1.1621a.4468.4468,0,0,0,.8872,0,.3883.3883,0,0,0-.4419-.39C167.5024,475.8408,167.311,475.9729,167.311,476.23Zm.8281-1.0925a.3815.3815,0,0,0-.7617.0034.3458.3458,0,0,0,.3789.3445A.35.35,0,0,0,168.1391,475.1379Z"/><path d="M169.59,475.5554a.2855.2855,0,1,1,.2959-.2852A.2864.2864,0,0,1,169.59,475.5554Zm0,1.44a.2854.2854,0,1,1,.2959-.2854A.2863.2863,0,0,1,169.59,476.9958Z"/><path d="M171.43,474.3864c.7168,0,.94.55.94,1.2837,0,.7412-.2227,1.2945-.94,1.2945s-.9389-.5533-.9389-1.2945C170.4907,474.9362,170.7133,474.3864,171.43,474.3864Zm0,.4524c-.41,0-.459.3965-.459.8313,0,.4524.0489.8421.459.8421s.46-.39.46-.8421C171.8891,475.2353,171.84,474.8388,171.43,474.8388Z"/><path d="M173.9345,474.3864c.7168,0,.9395.55.9395,1.2837,0,.7412-.2227,1.2945-.9395,1.2945s-.939-.5533-.939-1.2945C172.9955,474.9362,173.2182,474.3864,173.9345,474.3864Zm0,.4524c-.41,0-.459.3965-.459.8313,0,.4524.0489.8421.459.8421s.4595-.39.4595-.8421C174.394,475.2353,174.3452,474.8388,173.9345,474.8388Z"/><rect class="z" x="183.5772" y="471.0871" width="19.353" height="8.9615" rx="0.9806"/><path d="M188.6508,474.884h-.3379v-.4487h.8389v2.5361h-.501Z"/><path d="M190.4526,476.2583a.36.36,0,0,0,.393.3166c.2852,0,.4107-.2124.4107-.7829a.6573.6573,0,0,1-.5361.2365.7486.7486,0,0,1-.79-.81.79.79,0,0,1,.856-.8418c.6889,0,.9008.466.9008,1.27,0,.8627-.1914,1.3288-.8628,1.3288a.7564.7564,0,0,1-.8242-.7165Zm.7583-1.0369a.4071.4071,0,1,0-.39.4106A.3729.3729,0,0,0,191.2109,475.2214Z"/><path d="M192.5956,475.5554a.2855.2855,0,1,1,.2959-.2852A.2863.2863,0,0,1,192.5956,475.5554Zm0,1.44a.2854.2854,0,1,1,.2959-.2854A.2863.2863,0,0,1,192.5956,476.9958Z"/><path d="M194.4355,474.3864c.7168,0,.9394.55.9394,1.2837,0,.7412-.2226,1.2945-.9394,1.2945s-.939-.5533-.939-1.2945C193.4965,474.9362,193.7192,474.3864,194.4355,474.3864Zm0,.4524c-.41,0-.459.3965-.459.8313,0,.4524.0488.8421.459.8421s.46-.39.46-.8421C194.895,475.2353,194.8461,474.8388,194.4355,474.8388Z"/><path d="M196.94,474.3864c.7168,0,.9394.55.9394,1.2837,0,.7412-.2226,1.2945-.9394,1.2945s-.939-.5533-.939-1.2945C196.0014,474.9362,196.2241,474.3864,196.94,474.3864Zm0,.4524c-.41,0-.459.3965-.459.8313,0,.4524.0488.8421.459.8421s.4594-.39.4594-.8421C197.4,475.2353,197.351,474.8388,196.94,474.8388Z"/><rect class="e" x="122.2708" y="486.5927" width="72.8603" height="10.3926" rx="1.9516"/><line class="ab" x1="143.1472" y1="491.789" x2="174.9531" y2="491.789"/><polygon class="ac" points="792.766 489.21 783.07 507.672 787.285 511.177 802.03 501.178 804.092 494.059 810.6 442.714 791.72 429.546 792.766 489.21"/><polygon class="ad" points="783.07 507.672 783.07 507.672 770.575 513.16 795.099 513.197 801.302 504.861 800.247 513.204 806.25 513.213 806.276 499.6 804.092 494.059 793.134 506.786 783.07 507.672"/><polygon class="ac" points="746.115 489.21 736.418 507.672 740.633 511.177 755.378 501.178 757.44 494.059 763.948 442.714 745.068 429.546 746.115 489.21"/><polygon class="ad" points="736.418 507.672 736.418 507.672 723.923 513.16 748.447 513.197 754.65 504.861 753.595 513.204 759.598 513.213 759.625 499.6 757.44 494.059 746.482 506.786 736.418 507.672"/><path class="ae" d="M811.1759,396.4705c2.5272-28.38,10.2627-80.4991,1.0738-103.4657H754.4083C743.5146,331.1617,741.97,386.721,741.97,386.721l1.375,103.7363h16.4622s9.5627-44.5811,8.7919-63.4659a188.1823,188.1823,0,0,0-4.2344-33.1469l16.6264-48.6965,8.777,51.3225.4876,90.6421h15.4029a420.6683,420.6683,0,0,0,8.9865-42.19C817.7278,424.2915,811.1759,396.4705,811.1759,396.4705Z"/><path class="af" d="M780.9906,345.148c2.01-10.4495,2.9242-15.18,2.9242-15.18s16.6037-1.5945,15.5576-22.1488"/><path class="ac" d="M706.1659,194.6a19.9645,19.9645,0,0,1,.1717-5.9544c.5917-3.1766.7-5.2162-.7713-7.28s-1.4941-4.4106-1.2474-6.6651-1.0549-2.026-2.1026-.1444-1.11,5.4594-1.11,5.4594-4.8384-11.6115-6.2215-14.2054-1.1323.9706-.6061,4.4228S695.37,176.85,695.37,176.85s-2.6911-1.4548-2.874,2.0228c0,0-2.2444.0593-2.35,2.93,0,0-1.9071-.374-1.5512,2.497s2.0244,4.8506,4.049,6.6894a19.6325,19.6325,0,0,1,3.6016,5.1782l1.498,10.9968,12.1981-1.6356Z"/><line class="ag" x1="695.3695" y1="176.8503" x2="695.9619" y2="179.5846"/><line class="ag" x1="692.4955" y1="178.8731" x2="693.4057" y2="183.0647"/><line class="ag" x1="690.1458" y1="181.8035" x2="690.8506" y2="185.3666"/><path d="M768.652,158.2582c-3.4589,2.9646-7.1677,6.6734-6.67,10.6989s1.9333,5.4759,1.9333,5.4759l5.9367-7.059Z"/><path class="ah" d="M812.25,293.0048c-2.3082-8.4176-5.5939-16.1391-14.1947-28.76l5.248-27.5095-30.806-28.1383c-12.9158-.5511-14.4381.891-34.2128,6.8132-8.3244,2.4931-21.2453,7.2627-21.2453,7.2627l-7.7621-22.7708s-12.2284-.5947-14.7086,6.3913c0,0,1.4356,17.756,3.4953,29.9868s12.1921,14.4289,25.96,12.3954c15.6209-2.3073,22.9835-4.6664,22.9835-4.6664s-1.4923,9.5738,5.531,14.0947c9.3991,6.05,12.1263,8.6254,4.7915,22.1673a79.7693,79.7693,0,0,0-5.914,15.0661s18.5,5.2911,34.1108,4.3728A72.5515,72.5515,0,0,0,812.25,293.0048Z"/><path class="ac" d="M766.2923,167.8978c-3.2895,3.2443-4.2922,5.2318-4.9346,8.7493s-4.0648,4.4682-6.2513,5.7041,1.3622,1.7032,2.4717,4.0879.8556,6.5291,2.1866,9.7292,3.7539,1.6135,6.63.03l14.38-1.6529,7.4384-16.451-9.72-5.8205Z"/><path d="M787.9438,167.6907s-3.8446-1.6736-6.5131-2.8948-5.7895-4.6586-7.6891-6.0155-5.1133-3.6351-7.1927,3.8588c-1.628,5.867-3.1441,8.9558-2.4772,13.72s3.1441,3.5251,6.4787,2.096,7.2409-1.048,7.2409,2.0008-1.81,2.9535-4.859,4.4779-8.0984,5.6212-8.5748,10.29.1906,11.9094,8.48,17.34,9.9085,8.0984,12.8621,17.8164,6.4786,18.388,19.436,27.7249l48.0184-32.1075s-3.62-8.8606-12.29-11.7188-14.9581-5.6212-16.7683-11.433-4.0969-10.29-15.0534-12.9573-13.0527-12.0047-15.4345-17.8164"/><circle cx="792.3915" cy="167.5939" r="7.1909"/><line class="ai" x1="747.0066" y1="244.0097" x2="759.569" y2="241.5706"/><path d="M758.8166,190.5194a6.2553,6.2553,0,0,0,3.932-1.5495.6831.6831,0,0,0,0-.9607.696.696,0,0,0-.9608,0c-.0576.05-.1166.0987-.1752.1477q-.0906.0717.0019-.0006-.0458.0345-.0922.068-.1858.1341-.3827.2519t-.4027.2188c-.0686.0337-.1382.0651-.2078.0966.1429-.0648-.0466.0184-.0761.03a5.5043,5.5043,0,0,1-.8509.2513q-.1121.0236-.2252.0422-.0566.0094-.1132.0175.129-.0169.01-.0025c-.1525.0135-.3041.0263-.4572.0308a.6794.6794,0,0,0,0,1.3587Z"/><path d="M762.1784,175.7757a5.2681,5.2681,0,0,1,.6613.0072c.0629.0048.1255.012.1883.0177.14.013-.1438-.0245.0069,0,.109.018.2175.0362.3255.06a5.16,5.16,0,0,1,.6363.1807q.0669.0237.133.0492c.03.0114.0587.023.0879.0349q-.1341-.0576-.0317-.0132c.1.046.2.0925.2984.1431a.6795.6795,0,0,0,.6858-1.1732,5.9153,5.9153,0,0,0-2.9917-.665.6794.6794,0,1,0,0,1.3587Z"/><path d="M761.3778,177.9238a.4834.4834,0,0,1-.0031.0564l.0243-.1806c-.01.0685-.0332.1336-.0485.2009a1.6731,1.6731,0,0,0-.0357.25.3155.3155,0,0,0,0,.0364,1.6569,1.6569,0,0,0,.0272.2119.66.66,0,0,0,.0516.1461.7651.7651,0,0,0,.17.27l.02.0206a1.3613,1.3613,0,0,0,.1448.1122l.0119.0079.017.0087c.0337.0167.13.0588.1667.07l.0141.0045a1.2606,1.2606,0,0,0,.1974.0276.5993.5993,0,0,0,.1253-.0119.6914.6914,0,0,0,.1239-.02,1.2235,1.2235,0,0,0,.1839-.0779,1.1659,1.1659,0,0,0,.1681-.1254.4027.4027,0,0,0,.0622-.0623,1.2478,1.2478,0,0,0,.15-.208,2.3253,2.3253,0,0,0,.0992-.23.78.78,0,0,0,.03-.0971,2.291,2.291,0,0,0,.0391-.2606.82.82,0,0,0,.0063-.1015.8306.8306,0,0,0-.0065-.0947,2.1258,2.1258,0,0,0-.0394-.2606,1.0832,1.0832,0,0,0-.0912-.2314.6542.6542,0,0,0-.0708-.0974.5862.5862,0,0,0-.2109-.1935l-.0147-.0082a1.06,1.06,0,0,0-.1726-.0721.819.819,0,0,0-.1007-.0143.8651.8651,0,0,0-.1007-.013,1.19,1.19,0,0,0-.1911.0247l-.0158.003a.8344.8344,0,0,0-.0968.0393c-.0277.0117-.0664.0255-.0965.0417a1.069,1.069,0,0,0-.1625.1222.3826.3826,0,0,0-.0323.0287,1.4639,1.4639,0,0,0-.1574.2023,1.5262,1.5262,0,0,0-.1566.3225.5633.5633,0,0,0-.0271.0925c-.0137.07-.0222.1437-.029.2144a.3672.3672,0,0,0-.0012.0545,2.0829,2.0829,0,0,0,.027.208.2683.2683,0,0,0,.0083.0384,1.575,1.575,0,0,0,.0778.1877.3229.3229,0,0,0,.02.0386,1.6471,1.6471,0,0,0,.122.16.3436.3436,0,0,0,.0255.0285.323.323,0,0,0,.0287.0248,1.3452,1.3452,0,0,0,.1642.1239.84.84,0,0,0,.23.0943c.0312.007.0851.0118.1.0139.0223.003.0718.0124.1054.0136a.7624.7624,0,0,0,.1256-.0135.7409.7409,0,0,0,.3157-.1035l.0167-.0113a1.67,1.67,0,0,0,.1453-.1125.3182.3182,0,0,0,.0272-.0285.8217.8217,0,0,0,.1726-.275.6978.6978,0,0,0,.0552-.1571,1.3171,1.3171,0,0,0,.0274-.3486.6982.6982,0,0,0-.6794-.6794.6868.6868,0,0,0-.48.199l-.1062.1375a.6756.6756,0,0,0-.0927.3429.7022.7022,0,0,1-.0006.152l.0242-.1806a.4129.4129,0,0,1-.0234.092l.0685-.1623a.2855.2855,0,0,1-.0291.0524l.1062-.1375a.24.24,0,0,1-.0341.0357l.1375-.1063a.2228.2228,0,0,1-.044.0263l.1622-.0685a.2106.2106,0,0,1-.04.011l.1806-.0243a.2124.2124,0,0,1-.05,0l.1806.0243a.2632.2632,0,0,1-.0493-.0137l.1623.0685a.2955.2955,0,0,1-.0551-.0316l.1375.1063a.33.33,0,0,1-.0542-.0534l.1062.1375a.3176.3176,0,0,1-.0382-.0661l.0685.1623a.29.29,0,0,1-.0165-.0657l.0242.1806a.4106.4106,0,0,1,.002-.0953l-.0243.1806a.5533.5533,0,0,1,.0347-.1189l-.0685.1623a.9267.9267,0,0,1,.1058-.18l-.1062.1375a.3606.3606,0,0,1,.06-.0611l-.1375.1062a.235.235,0,0,1,.04-.0234l-.1623.0685a.1559.1559,0,0,1,.0314-.0081l-.1805.0243a.086.086,0,0,1,.0209,0l-.1806-.0242a.0815.0815,0,0,1,.0207.0057l-.1623-.0684a.0856.0856,0,0,1,.0194.0113l-.1375-.1062.0157.0154-.1062-.1375a.2069.2069,0,0,1,.0223.0391l-.0685-.1623a.6408.6408,0,0,1,.0332.1386l-.0243-.1805a.8011.8011,0,0,1-.0007.2029l.0242-.1806a.8.8,0,0,1-.0493.183l.0685-.1623a.5929.5929,0,0,1-.0695.126l.1062-.1375a.37.37,0,0,1-.0621.0623l.1375-.1063a.277.277,0,0,1-.0414.0243l.1623-.0685a.2032.2032,0,0,1-.0445.0125l.1806-.0243a.1948.1948,0,0,1-.035,0l.1806.0243a.215.215,0,0,1-.0309-.0078l.1623.0684a.1718.1718,0,0,1-.0333-.0184l.1375.1062a.2064.2064,0,0,1-.0272-.0265l.1062.1375a.2456.2456,0,0,1-.03-.0511l.0685.1622a.32.32,0,0,1-.018-.07l.0242.1806a.3528.3528,0,0,1,0-.0828l-.0242.1806a1.5672,1.5672,0,0,1,.0388-.16,1.2745,1.2745,0,0,0,.0463-.3272.7013.7013,0,0,0-.1989-.48.7559.7559,0,0,0-.48-.199.6868.6868,0,0,0-.48.199.7046.7046,0,0,0-.199.48Z"/><rect class="c" x="246.4584" width="97.5403" height="79.8463" rx="6.5969"/><rect class="e" x="251.2459" width="97.5403" height="79.8463" rx="6.5969"/><path class="aj" d="M332.7458,36.9533a5.2739,5.2739,0,0,0-4.7151,7.6766l-9.3644,6.2535a5.2942,5.2942,0,1,0,0,7.0809l9.3644,6.2371a5.24,5.24,0,0,0-.5791,2.3989,5.3377,5.3377,0,1,0,1.9357-4.07l-9.6291-6.4028a5.2863,5.2863,0,0,0,.2813-1.7041,5.1771,5.1771,0,0,0-.2813-1.704L329.3539,46.3a5.2412,5.2412,0,0,0,3.3916,1.2408,5.2942,5.2942,0,0,0,0-10.5883Z"/><path class="ak" d="M298.206,58.4974H314.42A3.8975,3.8975,0,0,0,318.3179,54.6V15.1224a3.8975,3.8975,0,0,0-3.8975-3.8975h-52.86a3.8975,3.8975,0,0,0-3.8974,3.8975V54.6a3.8974,3.8974,0,0,0,3.8974,3.8974H298.206Z"/><path d="M274.0917,16.8281h-.48v1.1h-.5748v-2.865h1.0547c.69,0,1.0347.39,1.0347.8865C275.1264,16.385,274.831,16.8281,274.0917,16.8281Zm-.0244-.4639c.3242,0,.4678-.16.4678-.4145,0-.2627-.1436-.4187-.4678-.4187h-.4555v.8332Z"/><path d="M276.4194,15.6174a.9005.9005,0,0,1,.7514.3611v-.3242h.5787v2.2739h-.5787v-.3325a.8971.8971,0,0,1-.7553.3693,1.0792,1.0792,0,0,1-1.0347-1.1821A1.0649,1.0649,0,0,1,276.4194,15.6174Zm.1479.5049a.6061.6061,0,0,0-.5991.6606.621.621,0,0,0,.5991.6773.6725.6725,0,0,0,0-1.3379Z"/><path d="M278.3979,16.1262h-.271v-.4719h.271V15.092h.5786v.5623h.5093v.4719h-.5093v1.1c0,.1518.0615.2175.2422.2175h.2671v.4844h-.3613c-.4351,0-.7266-.1848-.7266-.7061Z"/><path d="M279.8359,15.0468a.3534.3534,0,1,1,.353.3365A.337.337,0,0,1,279.8359,15.0468Zm.0615.6075h.5747v2.2739h-.5747Z"/><path d="M282.03,17.965a1.1743,1.1743,0,0,1,0-2.3476,1.0674,1.0674,0,0,1,1.1206,1.1245,1.3558,1.3558,0,0,1-.0161.2217h-1.6626a.5321.5321,0,0,0,.5459.5254.4681.4681,0,0,0,.4556-.2749h.62A1.0577,1.0577,0,0,1,282.03,17.965Zm-.5537-1.3872h1.0791a.5047.5047,0,0,0-.5415-.4885A.5279.5279,0,0,0,281.476,16.5778Z"/><path d="M285.1581,16.6721a.5115.5115,0,1,0-1.018,0v1.2561h-.5747V15.6543h.5747v.2832a.85.85,0,0,1,.6855-.3162.8749.8749,0,0,1,.9072.9729v1.334h-.5747Z"/><path d="M286.3647,16.1262h-.271v-.4719h.271V15.092h.5786v.5623h.5093v.4719h-.5093v1.1c0,.1518.0615.2175.2422.2175h.2671v.4844h-.3614c-.435,0-.7265-.1848-.7265-.7061Z"/><path d="M289.915,15.0632c.69,0,1.0346.3982,1.0346.8784a.8271.8271,0,0,1-.6528.825l.6856,1.1616h-.6651l-.6318-1.1165h-.271v1.1165H288.84v-2.865Zm-.0205.4761h-.48v.8415h.48c.32,0,.4638-.1684.4638-.427C290.3583,15.6994,290.2148,15.5393,289.8945,15.5393Z"/><path d="M292.46,17.965a1.1743,1.1743,0,0,1,0-2.3476,1.0675,1.0675,0,0,1,1.1206,1.1245,1.3558,1.3558,0,0,1-.0161.2217h-1.6626a.5321.5321,0,0,0,.5459.5254.4687.4687,0,0,0,.4556-.2749h.62A1.0577,1.0577,0,0,1,292.46,17.965Zm-.5542-1.3872h1.08a.5047.5047,0,0,0-.5415-.4885A.5283.5283,0,0,0,291.9057,16.5778Z"/><path d="M294.9721,15.6174a1.0144,1.0144,0,0,1,1.0713.8044h-.62a.4465.4465,0,0,0-.4556-.3161c-.32,0-.5337.2422-.5337.6855s.2139.6814.5337.6814a.4332.4332,0,0,0,.4556-.312h.62a1.0371,1.0371,0,0,1-1.0713.8044,1.1749,1.1749,0,0,1,0-2.3476Z"/><path d="M297.4721,17.965a1.1738,1.1738,0,1,1,1.186-1.1738A1.1367,1.1367,0,0,1,297.4721,17.965Zm0-.5007a.6053.6053,0,0,0,.5952-.6731.5888.5888,0,1,0-1.1655,0C296.9018,17.2426,297.1645,17.4643,297.4721,17.4643Z"/><path d="M299.6518,17.9282h-.5747V15.6543h.5747v.353a.7884.7884,0,0,1,.6977-.386v.6035h-.1518c-.3408,0-.5459.1314-.5459.5706Z"/><path d="M301.6279,15.6174a.9325.9325,0,0,1,.7426.3528V14.8908h.5831v3.0374h-.5831v-.3367a.8583.8583,0,0,1-.747.3735,1.08,1.08,0,0,1-1.0386-1.1821A1.0656,1.0656,0,0,1,301.6279,15.6174Zm.1435.5049a.6061.6061,0,0,0-.5991.6606.621.621,0,0,0,.5991.6773.6725.6725,0,0,0,0-1.3379Z"/><rect class="d" x="264.3053" y="21.0291" width="14.8909" height="13.2959"/><g class="al"><rect class="am" x="273.4753" y="53.4841" width="9.2142" height="2.0054" transform="translate(556.1649 108.9737) rotate(-180)"/><polygon class="m" points="276.288 55.49 279.974 68.906 280.57 68.906 277.86 55.49 276.288 55.49"/><polygon class="am" points="264.37 36.953 273.475 36.953 273.475 48.375 262.364 48.375 261.388 39.283 262.594 37.495 263.437 36.953 264.37 36.953"/><path class="an" d="M261.7545,48.3518l-.92-8.5a2.6175,2.6175,0,0,1,2.6024-2.8991h.9322c-1.626,0-2.5474,1.9512-2.2222,4.2819s.9214,7.14.9214,7.14Z"/><path class="ah" d="M277.3533,41.6059c.0718.3456.1358.6449.1753.8323a3.7046,3.7046,0,0,0,1.3847,2.2313,28.8922,28.8922,0,0,0,3.6989,1.8949c3.5484,1.7777,4.1134,5.41,3.85,8.156s-.8732,7.1529-.8732,7.1529H275.02a17.0962,17.0962,0,0,1,.9087-8.3892s-6.0292.1946-7.5815,0c-3.05-.3822-3.05-5.27-2.9348-6.92a29.2077,29.2077,0,0,0-.1735-5.4827,30.7693,30.7693,0,0,1-.6246-5.6388,4.5946,4.5946,0,0,1,1.7561-3.6593c.9-.5355,3.319-1.2729,4.11-1.66l3.09.8754a5.03,5.03,0,0,1,3.24,2.0668c1.7643,2.55,3.7594,5.8671,3.7594,5.8671l6.5,3.7588-.48,2.5568s-6.4125-1.7715-7.4767-2.007S277.3533,41.6059,277.3533,41.6059Z"/><path class="ao" d="M272.9791,23.1951a1.4906,1.4906,0,0,1,1.8864,1.2274,6.6769,6.6769,0,0,1,.1956,2.811l-3.7736,1.52-.42.1578a.8914.8914,0,0,1-.7239-.4909,1.5978,1.5978,0,0,1-1.2629.6083,1.3607,1.3607,0,0,1-1.1709-1.3972,1.3759,1.3759,0,0,1,1.5786-1.2542,4.703,4.703,0,0,1-.0557-2.0169,2.3826,2.3826,0,0,1,2.055-1.3685C272.2317,22.8857,272.514,22.8085,272.9791,23.1951Z"/><path class="ap" d="M280.1471,61.8733l-.5336,5.1375a1.5948,1.5948,0,0,0-.6057,1.5326c.0571.4684,1.7877.3492,3.7742.3492s2.8581.1274,1.3887-.6306a19.6016,19.6016,0,0,1-2.2208-1.2971l1.6718-5.0916Z"/><path class="m" d="M283.9336,68.1983l.0466-.0358c.0627.0329.125.0657.19.1,1.4694.758.5977.6306-1.3887.6306s-3.7171.1192-3.7742-.3492a1.5948,1.5948,0,0,1,.6057-1.5326C280.6435,68.1971,282.7981,68.3825,283.9336,68.1983Z"/><path class="aq" d="M282.657,49.1577a21.9946,21.9946,0,0,1-2.79-1.5652"/><path class="d" d="M270.4806,30.1233a13.6716,13.6716,0,0,0,1.9327,3.7641A22.8251,22.8251,0,0,0,275.22,36.318a11.6631,11.6631,0,0,0-.1985-1.9514,13.4449,13.4449,0,0,0-1.1868-2.7316Z"/><path class="ap" d="M273.256,23.7655s.7963.0985,1.3008,1.3629a7.4289,7.4289,0,0,1,.4523,3.0967,1.4083,1.4083,0,0,1-1.5041,1.3409,6.9273,6.9273,0,0,0,.0657,1.4327c.1164.5676.7557,1.0271-.13,1.3026s-2.2525-.8792-2.96-2.178a9.7985,9.7985,0,0,0,.5928-2.2677,1.0574,1.0574,0,0,1-.8855-.7084c-.2193-.66.4188-.8791.8812-.4867s1.2713-.3368,1.5518-.8973A3.9834,3.9834,0,0,0,273.256,23.7655Z"/><path class="ar" d="M273.5371,30.7944a3.7212,3.7212,0,0,1-1.4269-2.0327,3.77,3.77,0,0,0,1.3946.8043A7.7857,7.7857,0,0,0,273.5371,30.7944Z"/><path class="as" d="M277.2205,45.0987a4.4961,4.4961,0,0,0,1.2161.6381,16.1885,16.1885,0,0,0,1.6516.2615c.6159.0918.5589.2287.2626.36a3.8891,3.8891,0,0,1-.6286.2053,5.8132,5.8132,0,0,1,.9419.937c.3933.5158.4386.85,0,.62,0,0,.5139.8746-.5094.2312,0,0,.2108.4478-.4347.0788,0,0,.2434.3762-.3948.1575s-1.5669-.7709-1.9358-.9145a12.1134,12.1134,0,0,1-1.12-.5768Z"/><path class="at" d="M280.6641,48.1206a7.5525,7.5525,0,0,0-1.5937-1.3762"/><path class="at" d="M280.1547,48.3518a11.03,11.03,0,0,0-1.365-1.1841"/><path class="at" d="M279.72,48.4306a11.1315,11.1315,0,0,0-1.2122-.8381"/><path class="at" d="M279.7222,46.5633a2.1592,2.1592,0,0,0-.468-.2659"/><path class="aq" d="M277.2205,45.0987a43.8117,43.8117,0,0,0-5.8576-4.3917l-2.0747-5.9956"/><path class="aq" d="M265.4123,38.286c.5258,1.0846,1.6914,3.5152,2.2376,4.6157s1.1845,1.4137,3.2378,2.2409,5.3818,1.9542,5.3818,1.9542"/><path class="aq" d="M277.3533,41.6059a23.9479,23.9479,0,0,1-.4262-2.4413c-.0212-.57.62-1.1562.0627-2.63s-1.0875-2.647-1.0875-2.647"/><path class="ap" d="M276.3613,61.8733l-.5336,5.1375a1.5946,1.5946,0,0,0-.6057,1.5326c.0571.4684,1.7877.3492,3.7741.3492s2.8582.1274,1.3887-.6306a19.6046,19.6046,0,0,1-2.2207-1.2971l1.6717-5.0916Z"/><path class="m" d="M280.1478,68.1983l.0466-.0358c.0626.0329.125.0657.19.1,1.47.758.5978.6306-1.3887.6306s-3.717.1192-3.7741-.3492a1.5946,1.5946,0,0,1,.6057-1.5326C276.8577,68.1971,279.0123,68.3825,280.1478,68.1983Z"/><circle class="au" cx="274.0801" cy="33.8936" r="0.1811"/><circle class="au" cx="274.5038" cy="34.7658" r="0.1811"/><path class="av" d="M273.8668,25.97c-.0726.0147-.1629.0072-.2282.0151a.7527.7527,0,0,0-.331.1066c-.0392.0259-.0754.0557-.1122.0847-.0211.0168-.0553.0323-.0718.0114-.0132-.0166-.0008-.04.0119-.0577a.7223.7223,0,0,1,.3-.2654.8037.8037,0,0,1,.3046-.0621c.0639,0,.1692-.0246.2245.0135.0587.0406.0114.1087-.0427.1358A.2216.2216,0,0,1,273.8668,25.97Z"/><path class="av" d="M274.9171,25.6235a.4851.4851,0,0,0-.24-.0028c-.048.0117-.1318.008-.1658.0559-.0363.0509.0123.1085.0582.1248a.141.141,0,0,0,.045.0072,1.6915,1.6915,0,0,0,.1741-.0286.5347.5347,0,0,1,.1986.0134"/><path d="M273.5428,26.42c.0037.0154.0067.031.0089.0468l-.0021-.016a.3507.3507,0,0,1,.0033.085l.0021-.016-.0012.0068c-.0016.01.0052-.0084.0019-.0035-.0015.0027-.0008.0019.0022-.0024l.0068-.0065c.0044-.003.0053-.0037.0027-.0022q-.0061.0036.0081-.0036l.016-.0021h-.0052l.0159.0022a.0415.0415,0,0,1,.0161.0094c.0057.008.0067.0094.0031.0041l-.0053-.0088-.0047-.0092-.0029-.0063c.0036.0085.0045.0106.0028.0063a.2576.2576,0,0,1-.0117-.0457l.0021.0159a.2179.2179,0,0,1,0-.0559l-.0021.016.0052-.0235c.0016-.0044.0005-.0019-.0033.0077l.0028-.0048a.0368.0368,0,0,1-.0146.0144c-.0109.0037-.0135.005-.0076.0037l-.016.0021.0049,0-.016-.0022c-.01-.0051-.013-.0062-.0077-.0031-.0085-.0071-.0106-.0084-.0063-.0041-.0119-.0123-.0055-.0072-.0028-.0024l.0027.0055c-.004-.01-.0048-.0117-.0027-.006l.0043.0129a.36.36,0,0,1,.0121.0552l-.0022-.0159a.2635.2635,0,0,1,.002.0652l.0021-.016-.0022.0108q-.0025.0072.0006-.0006c.0022-.0049.0023-.0053,0-.0012l.0057-.0069c-.0044.0044-.0026.0033.0054-.0032-.0086.0054.0141-.0039.0037-.002l.0159-.0022-.0056,0,.016.0021c-.0059-.0015-.0037,0,.0067.0034-.0051-.0032-.0034-.0018.0052.0043l-.0022-.0021c-.004-.0046-.0028-.003.0035.0048l-.005-.0084-.0029-.006q.0053.0129.0027.0063a.248.248,0,0,1-.012-.048l.0022.016a.2193.2193,0,0,1,0-.0549l-.0021.0159.0043-.0212.0027-.0091c.0033-.0109-.0069.0126-.0013.0028l.0045-.008c.005-.0089-.01.0107-.0022.0032s-.01.007-.0046.0036c.0041-.0024.0014-.0013-.0083.0033l.0053-.0012-.0159.0022.0082,0-.016-.0021.004.001q.0068.0021-.0078-.0033c.0012.0014.01.007.0014,0s-.0007.0011.0007.0017c-.0056-.0077-.0071-.01-.0045-.0059l.0027.0041c.0012.002.0051.011.0014.0019s0,.0009.0007.0031l.0044.0216-.0021-.016a.3131.3131,0,0,1,.001.0743l.0021-.0159-.0042.02c-.0036.0117.0024-.0029.002-.0036l-.0046.0084c-.0049.0086.0078-.0081.0028-.0035l-.0053.0052c.0081-.0059.01-.0076.0062-.0052s-.0014.0013.008-.003l-.0082.0019.016-.0021-.0077,0,.0159.0021-.0051-.0013.0094.0039c-.01-.0043.0122.01.0022.0018-.0047-.0039.01.0133.0027.0029-.0022-.0041-.0012-.0016.0032.0077l-.0013-.0057.0021.016,0-.006a.06.06,0,1,0-.12,0,.1011.1011,0,0,0,.0678.0943.0952.0952,0,0,0,.0986-.0261.216.216,0,0,0,.0344-.185.1361.1361,0,0,0-.0419-.0806.0947.0947,0,0,0-.1116-.0138.1288.1288,0,0,0-.0537.0805.2507.2507,0,0,0-.0068.0867c.007.064.0373.1617.12.1506a.096.096,0,0,0,.0787-.0819.3738.3738,0,0,0-.0271-.1867.0851.0851,0,0,0-.0975-.0523c-.0717.0218-.073.1152-.0638.1756a.2492.2492,0,0,0,.03.0849.0926.0926,0,0,0,.0563.0476.0811.0811,0,0,0,.0755-.0224.1421.1421,0,0,0,.0277-.1116.562.562,0,0,0-.0149-.1024.0607.0607,0,0,0-.0739-.042.0614.0614,0,0,0-.0419.074Z"/><path d="M274.74,26.2779c.0037.0155.0067.0311.0089.0469l-.0021-.016a.3505.3505,0,0,1,.0033.085l.0021-.016-.0012.0068c-.0015.01.0053-.0084.002-.0035-.0016.0026-.0009.0019.0021-.0024l.0068-.0065c.0044-.003.0053-.0037.0028-.0022q-.0063.0036.0081-.0036l.0159-.0021h-.0052l.016.0021a.0434.0434,0,0,1,.016.01c.0057.008.0067.0093.0031.0041l-.0052-.0088-.0048-.0092-.0028-.0063q.0052.0128.0027.0063a.2564.2564,0,0,1-.0117-.0458l.0022.016a.2093.2093,0,0,1,0-.0559l-.0022.016.0052-.0235c.0016-.0044,0-.0019-.0033.0077l.0028-.0048a.0385.0385,0,0,1-.0145.0144c-.011.0037-.0136.005-.0077.0037l-.0159.0021.0048,0-.016-.0022c-.01-.0051-.013-.0062-.0077-.0031-.0085-.0071-.0106-.0084-.0063-.0041-.0118-.0124-.0055-.0072-.0028-.0024l.0027.0055c-.0039-.01-.0048-.0117-.0026-.006l.0042.0129a.3486.3486,0,0,1,.0121.0552l-.0021-.016a.2694.2694,0,0,1,.0019.0653l.0021-.016-.0022.0108q-.0024.0072.0006-.0006c.0023-.0049.0023-.0053,0-.0012l.0057-.0069q-.0065.0066.0054-.0033c-.0086.0054.0141-.0038.0037-.0019l.016-.0022-.0057,0,.016.0021c-.0059-.0015-.0036,0,.0067.0034-.0051-.0032-.0034-.0018.0052.0043l-.0021-.0021c-.0041-.0046-.0029-.003.0035.0048l-.0051-.0085-.0029-.0059c.0035.0086.0045.0107.0027.0063a.2555.2555,0,0,1-.012-.048l.0022.016a.2154.2154,0,0,1,0-.055l-.0022.016.0043-.0212.0027-.0091c.0034-.0109-.0068.0126-.0012.0028l.0044-.008c.005-.0089-.01.0107-.0021.0032s-.01.007-.0047.0035c.0041-.0023.0014-.0012-.0083.0034l.0054-.0012-.016.0022.0082,0-.016-.0021.0041.001q.0066.0021-.0078-.0033c.0011.0013.01.007.0013,0s-.0007.0011.0007.0017c-.0056-.0077-.0071-.01-.0044-.0059l.0026.0041c.0012.002.0051.011.0014.0019s0,.0009.0007.0031l.0045.0215-.0022-.0159a.3131.3131,0,0,1,.001.0743l.0021-.0159-.0041.0195c-.0037.0117.0023-.0029.0019-.0036l-.0046.0084c-.0049.0086.0078-.0082.0028-.0035l-.0053.0052c.0081-.0059.01-.0077.0063-.0052s-.0015.0013.008-.003l-.0082.0019.0159-.0021-.0077,0,.016.0021-.0052-.0013.0094.0039c-.0094-.0044.0122.01.0022.0018-.0046-.0039.01.0133.0027.0029-.0022-.0041-.0011-.0016.0032.0077l-.0013-.0057.0021.016,0-.006a.06.06,0,1,0-.12,0,.1013.1013,0,0,0,.0678.0943.0952.0952,0,0,0,.0986-.0261.2157.2157,0,0,0,.0344-.185.1361.1361,0,0,0-.0419-.0806.0947.0947,0,0,0-.1116-.0138.1283.1283,0,0,0-.0536.0805.2481.2481,0,0,0-.0068.0867c.0069.064.0373.1617.12.1506a.096.096,0,0,0,.0787-.0819.3708.3708,0,0,0-.0271-.1867.0851.0851,0,0,0-.0975-.0523c-.0717.0218-.073.1152-.0637.1756a.245.245,0,0,0,.03.0849.092.092,0,0,0,.0562.0475.0807.0807,0,0,0,.0755-.0223.1422.1422,0,0,0,.0277-.1116.5707.5707,0,0,0-.0148-.1024.0607.0607,0,0,0-.0739-.042.0613.0613,0,0,0-.042.0739Z"/><path class="aw" d="M274.3191,26.252a1.6463,1.6463,0,0,0,.177.7927,1.7925,1.7925,0,0,0,.101.1691c.0231.0354.07.094.0157.12a.7.7,0,0,1-.1814.0371l-.2288.0393c-.1033.0178-.06.175.0434.1574l.2517-.0433a.6286.6286,0,0,0,.2023-.0518c.1428-.0789.108-.2356.0326-.3492a1.4872,1.4872,0,0,1-.25-.8715.0817.0817,0,0,0-.1632,0Z"/><path d="M273.919,28.0319a.7019.7019,0,0,0,.682.15.0833.0833,0,0,0,.057-.1.0824.0824,0,0,0-.1-.057.5984.5984,0,0,1-.0747.02.3514.3514,0,0,1-.0595.0068.5158.5158,0,0,1-.1411-.01.5247.5247,0,0,1-.248-.1244.0832.0832,0,0,0-.1153,0,.0824.0824,0,0,0,0,.1154Z"/><ellipse class="ax" cx="273.5707" cy="26.2113" rx="0.4886" ry="0.8493" transform="translate(-0.5356 46.0535) rotate(-9.6133)"/><ellipse class="ax" cx="274.9853" cy="25.9717" rx="0.4886" ry="0.8493" transform="translate(-0.4757 46.2864) rotate(-9.6133)"/><line class="ax" x1="274.5036" y1="26.0533" x2="274.0523" y2="26.1297"/><path class="aw" d="M273.7665,27.2336l-.0115.0327-.0075.0193c.0026-.007.0034-.0077,0,0-.01.0221-.02.0439-.0322.0651s-.0231.04-.0359.0592l-.0219.0311-.0083.0111c.011-.0144-.0032.0037-.0045.0052a.8067.8067,0,0,1-.0964.0992l-.0266.0222c-.0178.0143.0132-.0094-.0054.004l-.0141.01q-.03.021-.0612.0391a.0816.0816,0,1,0,.0824.1409.9024.9024,0,0,0,.4-.4956.0824.0824,0,0,0-.057-.1.0836.0836,0,0,0-.1.057Z"/><path class="as" d="M287.02,42.9576a10.3544,10.3544,0,0,1,1.9961.3615,6.1685,6.1685,0,0,1,2.198,1.1392h-4.4757Z"/><path class="at" d="M290.4968,44.4583c-.1328-.2161-.509-.3157-.8963-.3931a4.1157,4.1157,0,0,1-1.2282-.3572"/><path class="an" d="M261.7545,48.3518l.4984,4.6068a2.836,2.836,0,0,0,2.82,2.531h8.4029v-3.189a3.9255,3.9255,0,0,0-3.9255-3.9255h-6.4811Z"/><polygon class="m" points="272.988 55.49 272.446 68.906 271.849 68.906 271.416 55.49 272.988 55.49"/><polygon class="m" points="267.842 55.49 264.156 68.906 263.56 68.906 266.27 55.49 267.842 55.49"/></g><rect class="ay" x="264.3695" y="36.9528" width="48.613" height="17.4709"/><line class="az" x1="282.2723" y1="21.6343" x2="309.4512" y2="21.6343"/><line class="az" x1="282.2723" y1="27.4047" x2="309.4512" y2="27.4047"/><line class="az" x1="282.2723" y1="24.5206" x2="303.6958" y2="24.5206"/><line class="ay" x1="299.5942" y1="36.9528" x2="299.5942" y2="54.4236"/><line class="ay" x1="281.0371" y1="36.9528" x2="281.0371" y2="54.4236"/><line class="ay" x1="264.3695" y1="42.2868" x2="312.9825" y2="42.2868"/><line class="ay" x1="264.3695" y1="48.2717" x2="312.9825" y2="48.2717"/><line class="az" x1="269.6353" y1="39.7059" x2="275.8033" y2="39.7059"/><line class="az" x1="287.4784" y1="45.38" x2="293.6464" y2="45.38"/><line class="az" x1="286.0533" y1="51.4902" x2="295.0716" y2="51.4902"/><line class="az" x1="303.3458" y1="39.7059" x2="309.5138" y2="39.7059"/><line class="az" x1="303.3458" y1="45.38" x2="309.5138" y2="45.38"/><circle class="ba" cx="283.165" cy="33.3423" r="0.6312"/><circle class="ba" cx="288.676" cy="31.0677" r="0.6312"/><circle class="ba" cx="294.0026" cy="32.9613" r="0.6312"/><circle class="ba" cx="299.5942" cy="32.3301" r="0.6312"/><circle class="ba" cx="304.8436" cy="30.4366" r="0.6312"/><circle class="ba" cx="311.6125" cy="32.3301" r="0.6312"/><polyline class="bb" points="283.165 33.593 288.676 31.068 294.003 32.961 299.594 32.33 304.844 30.437 311.612 32.33"/><polyline class="bc" points="161.208 100.893 241.855 159.646 91.468 257.293"/><line class="bd" x1="241.8553" y1="159.6456" x2="298.4894" y2="79.8463"/><line class="bd" x1="241.8553" y1="159.6456" x2="280.998" y2="326.2559"/><circle class="e" cx="241.8553" cy="159.6456" r="15.8078"/><rect class="c" x="78.0656" y="63.9915" width="97.5403" height="79.8463" rx="6.5969"/><rect class="ah" x="72.4432" y="63.9915" width="97.5403" height="79.8463" rx="6.5969"/><path class="be" d="M91.4685,103.9147a29.711,29.711,0,0,1,54.3435-16.61"/><path class="be" d="M150.9581,103.9147a29.711,29.711,0,0,1-54.3435,16.61"/><polyline class="be" points="144.07 110.803 150.958 103.915 157.846 110.803"/><polyline class="be" points="98.357 97.027 91.468 103.915 84.58 97.027"/><rect class="am" x="110.8305" y="83.9374" width="22.8447" height="39.6781" rx="3.0674" transform="translate(244.5056 207.5529) rotate(-180)"/><rect class="u" x="108.7515" y="83.9374" width="22.8447" height="39.6781" rx="3.0674" transform="translate(240.3476 207.5529) rotate(-180)"/><path class="d" d="M112.4759,85.54h1.933a.745.745,0,0,1,.7227.5641l.0526.21a.7449.7449,0,0,0,.7227.564h8.5338a.7449.7449,0,0,0,.7227-.564l.0526-.21a.745.745,0,0,1,.7228-.5641h1.9329a1.9473,1.9473,0,0,1,1.9474,1.9474v32.5775a1.9474,1.9474,0,0,1-1.9474,1.9475H112.4759a1.9474,1.9474,0,0,1-1.9474-1.9475V87.4877A1.9474,1.9474,0,0,1,112.4759,85.54Z"/><path class="e" d="M108.7515,87.0048v33.5433a3.0674,3.0674,0,0,0,3.0674,3.0674h16.71a3.0674,3.0674,0,0,0,3.0674-3.0674V87.0048a3.0674,3.0674,0,0,0-3.0674-3.0674h-16.71A3.0674,3.0674,0,0,0,108.7515,87.0048Zm1.777.4829a1.9474,1.9474,0,0,1,1.9474-1.9474h1.933a.745.745,0,0,1,.7227.564l.0526.21a.7449.7449,0,0,0,.7227.564h8.5338a.7449.7449,0,0,0,.7227-.564l.0526-.21a.7451.7451,0,0,1,.7228-.564h1.9329a1.9473,1.9473,0,0,1,1.9474,1.9474v32.5775a1.9474,1.9474,0,0,1-1.9474,1.9474H112.4759a1.9474,1.9474,0,0,1-1.9474-1.9474Z"/><rect class="bf" x="111.914" y="100.3034" width="16.5197" height="9.9448"/><polygon class="bf" points="111.908 100.309 111.92 110.254 125.018 110.245 111.908 100.309"/><polygon class="bf" points="128.44 110.243 115.342 110.251 128.427 100.298 128.44 110.243"/><path class="bf" d="M119.3574,104.0728l-5.5884,6.18,6.3364-.0042,6.3364-.0042-5.6043-6.1723A1.0024,1.0024,0,0,0,119.3574,104.0728Z"/><g class="bg"><path class="bh" d="M111.9076,100.3089l6.9469,5.8722a2.038,2.038,0,0,0,2.6335-.0017l6.9392-5.8815"/><line class="bh" x1="111.9204" y1="110.2537" x2="117.9901" y2="105.4505"/><line class="bh" x1="122.2528" y1="105.5312" x2="128.44" y2="110.2427"/></g><circle class="bi" cx="120.1738" cy="97.9085" r="3.9882"/><path class="d" d="M120.0224,96.9773h-.4819v-.774h1.3486v3.5532h-.8667Z"/><rect class="c" x="28.9239" y="203.0276" width="97.5403" height="79.8463" rx="6.5969"/><rect class="bj" x="23.6731" y="203.0276" width="97.5403" height="79.8463" rx="6.5969"/><rect class="d" x="42.9808" y="222.2545" width="54.6255" height="17.5122"/><rect class="be" x="46.2971" y="219.6752" width="54.6255" height="17.5122"/><path class="e" d="M42.1948,226.0381V265.594h60.4968V228.03H65.2791v-1.9923a2.4484,2.4484,0,0,0-2.4484-2.4484H44.6431A2.4483,2.4483,0,0,0,42.1948,226.0381Z"/><circle class="bk" cx="72.4432" cy="247.3002" r="13.8327"/><path class="d" d="M76.3375,240.31a3.59,3.59,0,0,0-2.4353.9777,2.1912,2.1912,0,0,1-2.9173,0,3.5923,3.5923,0,0,0-2.436-.9777,4.2006,4.2006,0,0,0-3.8943,4.4506,4.7921,4.7921,0,0,0,1.0445,3.0305,3.4538,3.4538,0,0,1,.8088,1.6321,10.5777,10.5777,0,0,0,3.14,6.4638h.57V252.55a2.2253,2.2253,0,1,1,4.4506,0v3.3379h.57a10.5738,10.5738,0,0,0,3.1391-6.4631,3.4633,3.4633,0,0,1,.8087-1.6321,4.7884,4.7884,0,0,0,1.0459-3.0312,4.2006,4.2006,0,0,0-3.8942-4.4506Z"/><rect class="c" x="239.3986" y="304.4228" width="97.5403" height="79.8463" rx="6.5969"/><rect class="bi" x="244.1861" y="304.4228" width="97.5403" height="79.8463" rx="6.5969"/><path class="e" d="M304.6029,345.3861V320.7176a24.6686,24.6686,0,1,0,12.33,46.0392l12.3381-21.3707Z"/><path class="be" d="M331.3518,341.5079a22.8707,22.8707,0,0,0-22.8707-22.8707v22.8707Z"/><path class="n" d="M316.9333,366.7566a24.6587,24.6587,0,0,0,12.338-21.37H304.6028Z"/><rect class="m" x="264.9591" y="354.8015" width="2.9601" height="4.4402" transform="translate(332.3785 -83.5533) rotate(45.2454)"/><polygon class="m" points="258.325 361.855 264.383 355.848 267.595 359.087 261.609 365.022 258.325 361.855"/><path class="m" d="M263.8929,362.758l-8.8568,8.7812a2.2808,2.2808,0,0,1-3.2255-.0138h0a2.2808,2.2808,0,0,1,.0138-3.2256l8.72-8.646Z"/><circle class="d" cx="277.2968" cy="344.8553" r="15.0503"/><circle class="bl" cx="277.2968" cy="344.8553" r="15.0503"/><path class="m" d="M286.1457,328.6713a18.4452,18.4452,0,1,0,7.3351,25.0328A18.4452,18.4452,0,0,0,286.1457,328.6713ZM270.0765,358.06a15.05,15.05,0,1,1,20.4256-5.985A15.05,15.05,0,0,1,270.0765,358.06Z"/><g class="bm"><rect class="ba" x="268.6249" y="351.6535" width="1.8982" height="13.7491"/><rect class="bn" x="273.1586" y="349.1598" width="1.8982" height="16.2429"/><rect class="bo" x="277.6924" y="346.666" width="1.8982" height="18.7366"/><rect class="bp" x="282.2262" y="344.1723" width="1.8982" height="21.2304"/><rect class="bq" x="286.7599" y="341.6785" width="1.8982" height="23.7241"/><polyline class="br" points="256.38 357.504 265.008 352.994 270.412 345.079 279.781 342.367 285.763 334.87"/><circle class="n" cx="256.3798" cy="357.5042" r="1.356"/><circle class="d" cx="270.4121" cy="345.0792" r="1.356"/><circle class="ah" cx="265.008" cy="352.9939" r="1.356"/><circle class="bi" cx="285.7625" cy="334.8703" r="1.356"/><circle class="bj" cx="279.7805" cy="342.3668" r="1.356"/></g><path class="bs" d="M270.7724,356.7881a15.05,15.05,0,0,1-6.3168-19.78c-.1254.2054-.2474.414-.3641.6273a15.05,15.05,0,0,0,26.4107,14.4406c.1167-.2134.2265-.4286.3317-.645A15.05,15.05,0,0,1,270.7724,356.7881Z"/><path class="bt" d="M274.869,331.56a12.2567,12.2567,0,0,1,5.67-.0366,13.7514,13.7514,0,0,1,5.2418,2.413,13.5681,13.5681,0,0,1,3.8048,4.3406,12.3792,12.3792,0,0,1,1.5781,5.4458,20.4263,20.4263,0,0,0-2.4723-4.8877,16.9757,16.9757,0,0,0-3.7169-3.8157,17.2363,17.2363,0,0,0-4.7169-2.4845A19.9059,19.9059,0,0,0,274.869,331.56Z"/><path class="bi" d="M923.4844,415.1907c.9978-1.2106,1.8483-2.789,1.4-4.2926-.8071-.4038-1.4076.7727-1.8505,1.5593-1.3461,2.3895-4.8133,2.3122-7.101,3.8247-2.511,1.66-3.3476,5.0788-5.7725,6.8621-2.3565,1.7328-5.44,1.5048-8.1974,1.8078-2.7932.3068-4.5811,1.7588-7.099,2.528-4.7446,1.4493-6.6458,3.475-8.0048,8.3088a16.87,16.87,0,0,0-.707,4.5776c-.2548-.6548-.5085-1.3085-.7907-1.9844-1.07-2.563-2.1959-5.1536-3.2848-7.6594-.12-.2767-.2408-.5554-.3615-.8326.8658-1.3768,3.2723-4.85,6.4183-6.4223,3.9693-1.9848,8.1113-1.8985,12.771-4.4009s5.1775-4.5736,6.2129-8.8291a33.7072,33.7072,0,0,0,.3451-11.6217c-.3451-2.589,1.4672-6.213,2.33-8.8883s-.7767-2.9338-2.9338-1.2079a31.2211,31.2211,0,0,0-7.5938,10.5274c-2.0709,4.66-3.8829,4.0556-9.492,7.2484s-4.4008,7.5937-4.3146,9.751.7478,4.371-1.208,6.2993c-2.4533,2.4188-3.0836,4.6159-3.1544,6.1161-2.1753-5.023-4.3182-10.1147-6.1074-15.3146a33.7338,33.7338,0,0,1,2.8362-4.1962c1.9268-2.4063,3.6131-2.01,6.1826-5.2219s.7226-3.2921,3.5961-5.38,4.6742-1.8467,9.9736-4.0147,6.1023-4.5766,6.6642-8.0292-.08-6.6644-.08-9.5549a10.1173,10.1173,0,0,1,2.4892-6.1828c.8029-.9634,2.0877-2.3282.8029-2.1677s-2.8907,2.0873-6.2628,3.9341-6.9857,2.65-9.314,4.4164-2.81,5.2189-3.854,7.8075-4.0951,3.1123-6.4238,4.3971-5.46,6.1824-4.3357,9.7154.8831,7.3067-.4015,9.4745a24.8461,24.8461,0,0,0-1.9643,4.7366c-2.9041-8.5054-4.8339-17.3037-4.3-26.5846.0383-.6675.127-1.3659.238-2.0743a33.4122,33.4122,0,0,1,5.9986-6.7858c3.3125-2.9254,5.0013-2.4,8.2489-4.8036s3.8969-6.1053,3.8319-9.0282c-.1108-4.99-.6541-9.8043.0335-14.8145.1773-1.2915,3.1015-7.3184,1.3389-7.7211-1.3479-.308-3.2414,2.226-4.1193,2.98-2.9791,2.5583-6.5763,4.4764-9.7309,6.8147-2.71,2.0085-3.381,4.7274-4.02,7.9994-.52,2.6631-2.5982,4.3519-5.4557,6.3654s-2.2734,6.1053-.65,8.3787,2.1433,5.001,2.7928,7.0146a19.7329,19.7329,0,0,1,.7007,3.0115,22.9884,22.9884,0,0,0-.32,2.6c-.588,10.2319,1.7424,19.841,5.0877,29.1012a3.8155,3.8155,0,0,0-.7635-.41,10.0955,10.0955,0,0,1-4.746-3.3654c-1.4669-1.9847-1.0355-4.4008-2.071-8.629s-3.5379-4.8324-5.7813-5.9542-3.4518-2.9338-5.4365-6.5581-1.3807-9.3194-1.2944-10.7-.6039-2.5027-1.7257-2.2437-2.071,1.4671-3.9693,6.3856-3.7969,8.629-3.7969,12.4259,1.0355,8.37,3.5379,10.6139a8.0292,8.0292,0,0,1,3.1065,6.7305c.0863,2.7613.7765,4.4009,2.7612,5.7815s5.6954,1.6395,11.7357.69a47.2133,47.2133,0,0,0,9.3252-2.3845c1.7345,4.5518,3.6779,9.0238,5.6011,13.4484,1.0875,2.5022,2.2118,5.089,3.2785,7.6449.1017.2434.1869.4739.2848.7145a9.315,9.315,0,0,0-6.2331-3.741c-7.6075-1.0143-10.7775-4.1842-13.06-7.8613s-7.7345-5.9592-14.328-5.5791-12.6283.7024-16.1029-2.2822c-2.8091-2.4129-4.1065-5.4108-5.41-6.9643-.264-.3143-.7928-.4148-.9978.0352-.1445.3181.1159.7971.25,1.0724a17.4644,17.4644,0,0,0,1.3559,2.0364,24.3222,24.3222,0,0,1,2.6748,4.8357c1.22,3.19,1.8761,9.006,2.6267,13.884A14.3575,14.3575,0,0,0,850.1239,446.5c8.7241-.4689,13.1332-1.5947,16.4165,1.5011s8.1245,2.4871,11.82-.4691c2.0952-1.6763,6.1291-3.2035,8.4708-1.8322a40.8846,40.8846,0,0,1,1.9507,11.7079,53.735,53.735,0,0,1-1.8988,14.8468l1.0716.3015a54.84,54.84,0,0,0,1.9406-15.1546,44.4214,44.4214,0,0,0-2.7586-14.3645c1.64-3.2338,5.5881-2.3743,11.014-2.8028,4.525-.3573,8.8625-1.5067,11.84-5.2,1.68-2.0833,2.8921-2.47,5.3082-3.2016,2.2973-.696,4.9145-2.1083,5.6325-4.5761.7749-2.6633-.9642-5.5952-.1288-8.24C921.2752,417.52,922.4867,416.4014,923.4844,415.1907Z"/><path class="m" d="M907.3128,496.35c-10.57-6.7952-4.2785-10.8219-1.7618-12.08s14.5971-10.5887,14.5971-24.5474H846.4994c0,13.9587,12.08,23.2889,14.5971,24.5474s8.8085,5.285-1.7618,12.08-11.8106,16.8631-11.8106,16.8631h71.5993S917.883,503.1456,907.3128,496.35Z"/><line class="bu" x1="1.6304" y1="513.2134" x2="989.1693" y2="513.2134"/></g></svg>