<svg width="207" height="207" viewBox="0 0 207 207" fill="none" xmlns="http://www.w3.org/2000/svg">
<circle cx="103.5" cy="103.5" r="103.5" fill="white"/>
<path d="M103 181C146.078 181 181 146.078 181 103C181 59.9218 146.078 25 103 25C59.9218 25 25 59.9218 25 103C25 146.078 59.9218 181 103 181Z" fill="#E8E6E4"/>
<rect x="58" y="79" width="91" height="62" fill="white"/>
<path d="M131.949 121.949C130.929 121.899 129.898 121.862 128.866 121.862C129.91 121.875 130.929 121.912 131.949 121.949Z" fill="#B7BEC0"/>
<path d="M151.427 63.1715H56.5281V83.9107H151.427V63.1715Z" fill="#28C2E4"/>
<path d="M151.943 84.0225H147.03V108.164H151.943V84.0225Z" fill="#58595B"/>
<path d="M122.05 143.992H56V84.0225H60.9126V139.025H122.05V143.992Z" fill="#58595B"/>
<path d="M72.5923 55H67.6797V73.0816H72.5923V55Z" fill="#58595B"/>
<path d="M132.292 55H127.38V73.0816H132.292V55Z" fill="#58595B"/>
<path d="M78.4873 96.3667H73.1694V101.334H78.4873V96.3667Z" fill="#58595B"/>
<path d="M89.7371 96.3667H84.4192V101.334H89.7371V96.3667Z" fill="#58595B"/>
<path d="M100.999 96.3667H95.6814V101.334H100.999V96.3667Z" fill="#58595B"/>
<path d="M112.261 96.3667H106.944V101.334H112.261V96.3667Z" fill="#58595B"/>
<path d="M123.511 96.3667H118.193V101.334H123.511V96.3667Z" fill="#58595B"/>
<path d="M134.773 96.3667H129.456V101.334H134.773V96.3667Z" fill="#58595B"/>
<path d="M78.4873 107.543H73.1694V112.511H78.4873V107.543Z" fill="#58595B"/>
<path d="M89.7371 107.543H84.4192V112.511H89.7371V107.543Z" fill="#58595B"/>
<path d="M100.999 107.543H95.6814V112.511H100.999V107.543Z" fill="#58595B"/>
<path d="M112.261 107.543H106.944V112.511H112.261V107.543Z" fill="#58595B"/>
<path d="M123.511 107.543H118.193V112.511H123.511V107.543Z" fill="#58595B"/>
<path d="M134.773 107.543H129.456V112.511H134.773V107.543Z" fill="#58595B"/>
<path d="M78.4873 118.72H73.1694V123.688H78.4873V118.72Z" fill="#58595B"/>
<path d="M89.7371 118.72H84.4192V123.688H89.7371V118.72Z" fill="#58595B"/>
<path d="M100.999 118.72H95.6814V123.688H100.999V118.72Z" fill="#58595B"/>
<path d="M112.261 118.72H106.944V123.688H112.261V118.72Z" fill="#58595B"/>
<path d="M123.511 118.72H118.193V123.688H123.511V118.72Z" fill="#58595B"/>
<path d="M153.811 117.679C150.302 115.655 149.379 115.575 144.47 116.854C143.729 117.045 143.09 117.156 142.502 117.226C141.914 117.166 141.264 117.045 140.524 116.854C135.615 115.564 134.702 115.655 131.192 117.679C128.119 119.291 126.344 123.953 127.226 129.19C128.241 135.242 130.594 135.665 130.594 142.221C130.594 148.747 132.978 152 134.895 152C136.812 152 137.775 149.764 139.875 144.175C141.315 140.338 143.455 139.734 145.129 144.175C147.228 149.764 148.192 152 150.109 152C152.026 152 154.41 148.747 154.41 142.221C154.41 135.686 156.753 135.303 157.777 129.19C158.649 123.953 156.885 119.291 153.811 117.679Z" fill="#28C2E4"/>
</svg>
